<svg xmlns="http://www.w3.org/2000/svg" xmlns:xlink="http://www.w3.org/1999/xlink" width="559" zoomAndPan="magnify" viewBox="0 0 419.25 297.75" height="397" preserveAspectRatio="xMidYMid meet" version="1.0"><defs><clipPath id="1e20807da4"><path d="M 0 0.140625 L 418.5 0.140625 L 418.5 297.359375 L 0 297.359375 Z M 0 0.140625 " clip-rule="nonzero"/></clipPath><clipPath id="ae05f3281a"><path d="M 69 4.03125 L 367 4.03125 L 367 293 L 69 293 Z M 69 4.03125 " clip-rule="nonzero"/></clipPath><clipPath id="456122801e"><path d="M 273.175781 85.238281 L 323.335938 85.238281 L 323.335938 118.179688 L 273.175781 118.179688 Z M 273.175781 85.238281 " clip-rule="nonzero"/></clipPath><clipPath id="7ef76476cd"><path d="M 118.550781 85.238281 L 168.710938 85.238281 L 168.710938 118.179688 L 118.550781 118.179688 Z M 118.550781 85.238281 " clip-rule="nonzero"/></clipPath></defs><g clip-path="url(#1e20807da4)"><path fill="#ffffff" d="M 0 0.140625 L 418.5 0.140625 L 418.5 297.359375 L 0 297.359375 Z M 0 0.140625 " fill-opacity="1" fill-rule="nonzero"/><path fill="#ffffff" d="M 0 0.140625 L 418.5 0.140625 L 418.5 297.359375 L 0 297.359375 Z M 0 0.140625 " fill-opacity="1" fill-rule="nonzero"/></g><g clip-path="url(#ae05f3281a)"><path fill="#11171d" d="M 362.492188 124.027344 L 348.449219 124.027344 C 348.511719 114.601562 348.726562 105.144531 348.589844 95.71875 C 351.332031 97.433594 354.078125 99.148438 356.820312 100.863281 C 361.535156 103.804688 365.863281 96.363281 361.167969 93.433594 C 345.167969 83.441406 329.167969 73.445312 313.171875 63.453125 C 287.691406 47.539062 262.207031 31.625 236.726562 15.707031 C 230.90625 12.074219 225.085938 8.4375 219.265625 4.800781 C 218.003906 4.015625 216.179688 4.003906 214.917969 4.800781 C 199.113281 14.800781 183.3125 24.800781 167.507812 34.800781 C 142.351562 50.71875 117.191406 66.632812 92.035156 82.550781 C 86.300781 86.179688 80.570312 89.804688 74.835938 93.433594 C 70.167969 96.386719 74.484375 103.835938 79.183594 100.863281 C 81.980469 99.089844 84.777344 97.320312 87.574219 95.550781 L 87.574219 123.832031 C 83.042969 123.816406 78.511719 123.855469 74 124.027344 C 73.839844 124.03125 73.675781 124.027344 73.515625 124.027344 C 67.972656 124.027344 67.964844 132.628906 73.515625 132.628906 L 87.574219 132.628906 L 87.574219 265.667969 C 84.578125 265.6875 81.582031 265.738281 78.59375 265.851562 C 78.433594 265.855469 78.277344 265.851562 78.117188 265.851562 C 75.789062 265.851562 73.8125 267.820312 73.8125 270.152344 L 73.8125 288.398438 C 73.8125 290.722656 75.785156 292.699219 78.117188 292.699219 L 313.058594 292.699219 C 321.476562 292.699219 329.957031 292.96875 338.394531 292.835938 C 344.742188 292.910156 351.09375 292.941406 357.414062 292.699219 C 357.570312 292.695312 357.730469 292.699219 357.886719 292.699219 C 359.207031 292.699219 360.210938 292.210938 360.902344 291.464844 C 361.679688 290.773438 362.195312 289.753906 362.195312 288.398438 L 362.195312 270.152344 C 362.195312 267.828125 360.222656 265.851562 357.886719 265.851562 L 348.429688 265.851562 L 348.429688 132.824219 C 352.964844 132.839844 357.492188 132.804688 362.007812 132.628906 C 362.167969 132.625 362.328125 132.628906 362.492188 132.628906 C 368.03125 132.628906 368.042969 124.027344 362.492188 124.027344 Z M 353.582031 284.097656 L 89.550781 284.097656 C 88.898438 284.097656 88.238281 284.082031 87.574219 284.066406 C 85.875 284.019531 84.140625 283.9375 82.425781 283.933594 L 82.425781 274.453125 L 346.457031 274.453125 C 347.105469 274.453125 347.765625 274.46875 348.429688 274.488281 C 350.132812 274.53125 351.863281 274.613281 353.582031 274.617188 Z M 96.1875 90.851562 C 109.609375 82.359375 123.03125 73.867188 136.449219 65.375 C 158.953125 51.140625 181.453125 36.902344 203.957031 22.664062 C 208.371094 19.871094 212.785156 17.078125 217.203125 14.28125 C 230.777344 22.761719 244.355469 31.242188 257.933594 39.722656 C 280.722656 53.957031 303.511719 68.191406 326.304688 82.425781 C 330.808594 85.238281 335.3125 88.054688 339.816406 90.867188 L 339.816406 123.984375 L 122.949219 123.984375 C 114.054688 123.984375 105.09375 123.675781 96.1875 123.867188 Z M 317.769531 132.933594 L 317.769531 138.203125 L 280.714844 138.203125 L 280.714844 132.882812 L 317.769531 132.882812 Z M 263.195312 265.851562 L 245.144531 265.851562 L 245.144531 256.015625 C 245.144531 253.6875 243.167969 251.710938 240.835938 251.710938 L 235.414062 251.710938 L 235.414062 146.808594 L 240.835938 146.808594 C 242.15625 146.808594 243.160156 146.316406 243.851562 145.570312 C 244.628906 144.878906 245.144531 143.859375 245.144531 142.503906 L 245.144531 132.628906 L 272.101562 132.628906 L 272.101562 142.503906 C 272.101562 144.832031 274.074219 146.808594 276.410156 146.808594 L 281.652344 146.808594 L 281.652344 251.710938 L 276.410156 251.710938 C 274.082031 251.710938 272.101562 253.683594 272.101562 256.015625 L 272.101562 265.851562 Z M 182.472656 265.851562 L 164.386719 265.851562 L 164.386719 256.015625 C 164.386719 253.6875 162.410156 251.710938 160.078125 251.710938 L 154.355469 251.710938 L 154.355469 146.808594 L 160.078125 146.808594 C 161.398438 146.808594 162.402344 146.316406 163.09375 145.570312 C 163.871094 144.878906 164.386719 143.859375 164.386719 142.503906 L 164.386719 132.628906 L 190.863281 132.628906 L 190.863281 142.503906 C 190.863281 144.832031 192.835938 146.808594 195.167969 146.808594 L 200.503906 146.808594 L 200.503906 251.710938 L 195.167969 251.710938 C 192.84375 251.710938 190.863281 253.683594 190.863281 256.015625 L 190.863281 265.851562 Z M 118.71875 260.316406 L 155.773438 260.316406 L 155.773438 265.636719 L 118.71875 265.636719 Z M 236.53125 132.910156 L 236.53125 138.203125 L 199.476562 138.203125 L 199.476562 132.882812 L 236.53125 132.882812 Z M 236.53125 265.636719 L 199.476562 265.636719 L 199.476562 260.316406 L 236.53125 260.316406 Z M 226.800781 176.378906 L 226.800781 251.710938 L 209.117188 251.710938 L 209.117188 146.808594 L 226.800781 146.808594 Z M 118.71875 132.910156 L 118.71875 132.882812 L 155.773438 132.882812 L 155.773438 138.203125 L 118.71875 138.203125 Z M 128.058594 221.992188 L 128.058594 146.808594 L 145.742188 146.808594 L 145.742188 251.710938 L 128.058594 251.710938 Z M 317.769531 265.636719 L 280.714844 265.636719 L 280.714844 260.316406 L 317.769531 260.316406 Z M 307.949219 176.378906 L 307.949219 251.710938 L 290.265625 251.710938 L 290.265625 146.808594 L 307.949219 146.808594 Z M 96.1875 234.011719 L 96.1875 132.628906 L 110.105469 132.628906 L 110.105469 142.503906 C 110.105469 144.832031 112.078125 146.808594 114.410156 146.808594 L 119.445312 146.808594 L 119.445312 251.710938 L 114.410156 251.710938 C 112.082031 251.710938 110.105469 253.683594 110.105469 256.015625 L 110.105469 265.839844 C 105.476562 265.820312 100.832031 265.746094 96.1875 265.699219 Z M 329.957031 265.851562 L 326.382812 265.851562 L 326.382812 256.015625 C 326.382812 253.6875 324.410156 251.710938 322.074219 251.710938 L 316.5625 251.710938 L 316.5625 146.808594 L 322.074219 146.808594 C 323.394531 146.808594 324.398438 146.316406 325.089844 145.574219 C 325.867188 144.878906 326.382812 143.859375 326.382812 142.503906 L 326.382812 132.628906 L 326.921875 132.628906 C 331.210938 132.628906 335.511719 132.691406 339.816406 132.746094 L 339.816406 265.851562 Z M 329.957031 265.851562 " fill-opacity="1" fill-rule="nonzero"/></g><path fill="#11171d" d="M 225.292969 111.441406 C 241.207031 108.457031 252.519531 93.957031 252.730469 78.03125 C 252.539062 63.65625 243.628906 50.960938 230.125 45.964844 C 216.976562 41.097656 201.386719 45.375 192.492188 56.164062 C 183.34375 67.257812 181.886719 83.285156 189.425781 95.660156 C 196.875 107.886719 211.28125 114.066406 225.292969 111.441406 Z M 196.863281 64.746094 C 202.28125 55.855469 213.117188 50.933594 223.386719 52.996094 C 235.398438 55.410156 243.957031 65.828125 244.117188 78.03125 C 243.980469 88.507812 237.507812 98.363281 227.476562 101.9375 C 217.242188 105.585938 205.742188 102.515625 198.820312 94.109375 C 192.015625 85.847656 191.328125 73.828125 196.863281 64.746094 Z M 196.863281 64.746094 " fill-opacity="1" fill-rule="nonzero"/><path fill="#000000" d="M 226.289062 78.390625 C 225.476562 77.800781 224.550781 77.28125 223.535156 76.851562 C 222.695312 76.496094 221.859375 76.152344 221.050781 75.835938 L 221.050781 72.375 C 221.050781 71.851562 221.042969 71.28125 221.027344 70.664062 C 221.023438 70.402344 221.019531 70.144531 221.023438 69.890625 C 221.441406 70.082031 221.910156 70.28125 222.417969 70.492188 C 224.058594 71.160156 225.667969 71.105469 226.640625 70.238281 C 227.195312 69.75 227.476562 69.140625 227.476562 68.433594 C 227.476562 67.730469 227.160156 67.085938 226.53125 66.515625 C 226.003906 66.039062 225.363281 65.605469 224.628906 65.230469 C 223.90625 64.863281 223.160156 64.5625 222.40625 64.335938 C 221.90625 64.1875 221.472656 64.070312 221.097656 63.980469 L 221.097656 63.710938 C 221.097656 63.582031 221.105469 63.449219 221.117188 63.316406 C 221.132812 63.144531 221.144531 62.957031 221.144531 62.75 C 221.144531 61.675781 221 60.722656 220.710938 59.921875 C 220.460938 59.226562 219.832031 58.398438 218.234375 58.398438 C 217.574219 58.398438 217.03125 58.546875 216.628906 58.839844 C 216.246094 59.121094 215.945312 59.496094 215.730469 59.960938 C 215.53125 60.390625 215.402344 60.890625 215.347656 61.453125 C 215.300781 61.957031 215.277344 62.488281 215.277344 63.023438 L 215.277344 63.914062 C 214.296875 64.113281 213.390625 64.414062 212.582031 64.8125 C 211.621094 65.285156 210.792969 65.863281 210.117188 66.539062 C 209.4375 67.21875 208.90625 67.984375 208.539062 68.816406 C 208.167969 69.660156 207.980469 70.546875 207.980469 71.457031 C 207.980469 72.585938 208.261719 73.597656 208.816406 74.460938 C 209.339844 75.277344 209.996094 76.007812 210.765625 76.628906 C 211.511719 77.234375 212.3125 77.757812 213.144531 78.191406 C 213.917969 78.59375 214.636719 78.9375 215.277344 79.210938 C 215.273438 80.433594 215.269531 81.605469 215.253906 82.726562 C 215.242188 83.667969 215.234375 84.644531 215.230469 85.652344 C 215.121094 85.578125 215.011719 85.492188 214.894531 85.402344 C 214.410156 85.007812 213.96875 84.644531 213.578125 84.3125 C 213.132812 83.929688 212.699219 83.605469 212.289062 83.34375 C 211.804688 83.03125 211.3125 82.875 210.824219 82.875 C 209.921875 82.875 209.21875 83.175781 208.722656 83.769531 C 208.261719 84.328125 208.027344 84.953125 208.027344 85.621094 C 208.027344 86.179688 208.234375 86.765625 208.644531 87.359375 L 208.6875 87.414062 C 209.09375 87.882812 209.496094 88.324219 209.878906 88.722656 C 210.289062 89.148438 210.761719 89.546875 211.285156 89.90625 C 211.808594 90.265625 212.425781 90.59375 213.121094 90.886719 C 213.703125 91.128906 214.398438 91.371094 215.191406 91.613281 C 215.199219 91.683594 215.203125 91.753906 215.210938 91.816406 C 215.222656 91.980469 215.230469 92.128906 215.230469 92.269531 C 215.230469 92.773438 215.246094 93.273438 215.277344 93.753906 C 215.3125 94.28125 215.410156 94.773438 215.570312 95.214844 C 215.753906 95.714844 216.054688 96.121094 216.460938 96.425781 C 216.882812 96.734375 217.449219 96.894531 218.140625 96.894531 C 218.726562 96.894531 219.304688 96.710938 219.855469 96.355469 C 220.441406 95.976562 220.835938 95.394531 221.03125 94.625 L 221.058594 94.527344 L 221.050781 94.429688 C 221.019531 93.933594 221.003906 93.429688 221.003906 92.933594 L 221.003906 91.917969 C 221.839844 91.738281 222.675781 91.492188 223.503906 91.195312 C 224.53125 90.824219 225.472656 90.316406 226.300781 89.679688 C 227.140625 89.035156 227.835938 88.226562 228.363281 87.285156 C 228.902344 86.320312 229.175781 85.128906 229.175781 83.742188 C 229.175781 82.527344 228.894531 81.464844 228.347656 80.585938 C 227.820312 79.742188 227.128906 79.003906 226.289062 78.390625 Z M 215.277344 73.09375 C 215.027344 72.875 214.800781 72.644531 214.589844 72.398438 C 214.207031 71.945312 213.996094 71.472656 213.945312 70.960938 C 214.136719 70.5 214.394531 70.1875 214.730469 70 C 214.914062 69.902344 215.09375 69.8125 215.277344 69.730469 Z M 222.703125 85.46875 C 222.0625 85.835938 221.492188 86.125 221.003906 86.328125 L 221.003906 83.878906 C 221.003906 83.367188 221.011719 82.847656 221.027344 82.316406 C 221.03125 82.15625 221.035156 81.996094 221.039062 81.832031 C 221.25 81.976562 221.449219 82.117188 221.636719 82.257812 C 222.074219 82.585938 222.542969 82.949219 223.046875 83.34375 C 223.128906 83.488281 223.183594 83.621094 223.207031 83.734375 C 223.242188 83.90625 223.261719 84.078125 223.261719 84.246094 C 223.261719 84.714844 223.078125 85.117188 222.703125 85.46875 Z M 222.703125 85.46875 " fill-opacity="1" fill-rule="nonzero"/><path fill="#000000" d="M 296.898438 104.519531 L 295.933594 104.519531 C 295.660156 104.519531 295.40625 104.40625 295.222656 104.222656 L 295.195312 104.195312 C 295.03125 104.015625 294.925781 103.773438 294.925781 103.507812 C 294.925781 103.140625 294.632812 102.84375 294.265625 102.84375 C 293.902344 102.84375 293.605469 103.140625 293.605469 103.507812 C 293.605469 104.128906 293.851562 104.695312 294.25 105.117188 L 294.289062 105.164062 C 294.671875 105.546875 295.1875 105.796875 295.757812 105.84375 L 295.757812 106.59375 C 295.757812 106.960938 296.050781 107.257812 296.417969 107.257812 C 296.78125 107.257812 297.078125 106.960938 297.078125 106.59375 L 297.078125 105.84375 C 297.648438 105.796875 298.164062 105.546875 298.542969 105.164062 L 298.542969 105.160156 C 298.964844 104.738281 299.226562 104.152344 299.226562 103.507812 C 299.226562 102.863281 298.964844 102.277344 298.542969 101.851562 C 298.121094 101.425781 297.539062 101.164062 296.898438 101.164062 L 295.933594 101.164062 C 295.660156 101.164062 295.40625 101.046875 295.222656 100.863281 L 295.195312 100.835938 C 295.03125 100.65625 294.925781 100.414062 294.925781 100.148438 C 294.925781 99.867188 295.039062 99.617188 295.222656 99.433594 C 295.40625 99.25 295.660156 99.132812 295.933594 99.132812 L 296.898438 99.132812 C 297.175781 99.132812 297.425781 99.25 297.609375 99.433594 C 297.792969 99.617188 297.90625 99.871094 297.90625 100.148438 C 297.90625 100.515625 298.199219 100.8125 298.566406 100.8125 C 298.933594 100.8125 299.226562 100.515625 299.226562 100.148438 C 299.226562 99.503906 298.964844 98.917969 298.542969 98.496094 L 298.542969 98.492188 C 298.160156 98.109375 297.648438 97.859375 297.078125 97.8125 L 297.078125 97.0625 C 297.078125 96.691406 296.78125 96.394531 296.417969 96.394531 C 296.050781 96.394531 295.757812 96.691406 295.757812 97.0625 L 295.757812 97.8125 C 295.1875 97.855469 294.671875 98.109375 294.292969 98.492188 C 293.867188 98.917969 293.605469 99.503906 293.605469 100.148438 C 293.605469 100.769531 293.851562 101.335938 294.25 101.757812 L 294.289062 101.804688 C 294.710938 102.226562 295.296875 102.492188 295.9375 102.492188 L 296.898438 102.492188 C 297.175781 102.492188 297.429688 102.605469 297.613281 102.789062 C 297.792969 102.972656 297.90625 103.226562 297.90625 103.503906 C 297.90625 103.785156 297.792969 104.039062 297.609375 104.222656 C 297.425781 104.40625 297.175781 104.519531 296.898438 104.519531 Z M 296.898438 104.519531 " fill-opacity="1" fill-rule="nonzero"/><path fill="#000000" d="M 296.417969 110.261719 C 298.730469 110.261719 300.828125 109.316406 302.34375 107.792969 C 303.859375 106.265625 304.796875 104.15625 304.796875 101.828125 C 304.796875 99.5 303.859375 97.390625 302.34375 95.863281 C 300.828125 94.335938 298.730469 93.394531 296.417969 93.394531 C 294.101562 93.394531 292.007812 94.339844 290.492188 95.863281 C 288.972656 97.390625 288.035156 99.5 288.035156 101.828125 C 288.035156 104.15625 288.976562 106.265625 290.492188 107.792969 C 292.007812 109.316406 294.101562 110.261719 296.417969 110.261719 Z M 291.550781 96.929688 C 292.796875 95.675781 294.515625 94.902344 296.417969 94.902344 C 298.316406 94.902344 300.039062 95.679688 301.285156 96.929688 C 302.53125 98.183594 303.300781 99.914062 303.300781 101.828125 C 303.300781 103.738281 302.527344 105.472656 301.285156 106.726562 C 300.039062 107.980469 298.316406 108.753906 296.417969 108.753906 C 294.515625 108.753906 292.796875 107.976562 291.550781 106.726562 C 290.304688 105.472656 289.535156 103.738281 289.535156 101.828125 C 289.535156 99.914062 290.304688 98.183594 291.550781 96.929688 Z M 291.550781 96.929688 " fill-opacity="1" fill-rule="nonzero"/><g clip-path="url(#456122801e)"><path fill="#000000" d="M 323.246094 108.054688 L 319.644531 90.519531 L 319.644531 90.515625 C 319.644531 90.410156 319.625 90.308594 319.582031 90.214844 L 318.699219 85.902344 C 318.613281 85.496094 318.21875 85.234375 317.816406 85.316406 L 296.429688 89.765625 L 273.9375 89.765625 C 273.523438 89.765625 273.1875 90.101562 273.1875 90.515625 L 273.1875 113.136719 C 273.1875 113.554688 273.523438 113.890625 273.9375 113.890625 L 277.011719 113.890625 L 277.753906 117.511719 C 277.835938 117.917969 278.230469 118.179688 278.632812 118.097656 L 298.855469 113.890625 L 318.894531 113.890625 C 319.308594 113.890625 319.644531 113.554688 319.644531 113.136719 L 319.644531 109.570312 L 322.664062 108.941406 C 323.066406 108.859375 323.328125 108.460938 323.246094 108.054688 Z M 317.386719 86.941406 L 317.964844 89.765625 L 303.808594 89.765625 Z M 279.066406 116.472656 L 278.535156 113.890625 L 291.480469 113.890625 Z M 318.148438 112.386719 L 274.6875 112.386719 L 274.6875 91.273438 L 318.148438 91.273438 Z M 319.644531 108.035156 L 319.644531 97.945312 L 321.632812 107.621094 Z M 319.644531 108.035156 " fill-opacity="1" fill-rule="nonzero"/></g><path fill="#000000" d="M 277.789062 98.515625 C 278.199219 98.515625 278.535156 98.179688 278.535156 97.765625 L 278.535156 94.941406 L 281.34375 94.941406 C 281.753906 94.941406 282.089844 94.601562 282.089844 94.1875 C 282.089844 93.769531 281.753906 93.433594 281.34375 93.433594 L 277.789062 93.433594 C 277.375 93.433594 277.039062 93.769531 277.039062 94.1875 L 277.039062 97.765625 C 277.039062 98.179688 277.375 98.515625 277.789062 98.515625 Z M 277.789062 98.515625 " fill-opacity="1" fill-rule="nonzero"/><path fill="#000000" d="M 281.34375 108.714844 L 278.535156 108.714844 L 278.535156 105.890625 C 278.535156 105.476562 278.199219 105.136719 277.789062 105.136719 C 277.375 105.136719 277.039062 105.476562 277.039062 105.890625 L 277.039062 109.46875 C 277.039062 109.886719 277.375 110.222656 277.789062 110.222656 L 281.34375 110.222656 C 281.753906 110.222656 282.089844 109.886719 282.089844 109.46875 C 282.089844 109.054688 281.753906 108.714844 281.34375 108.714844 Z M 281.34375 108.714844 " fill-opacity="1" fill-rule="nonzero"/><path fill="#000000" d="M 311.492188 94.941406 L 314.296875 94.941406 L 314.296875 97.765625 C 314.296875 98.179688 314.632812 98.515625 315.046875 98.515625 C 315.457031 98.515625 315.792969 98.179688 315.792969 97.765625 L 315.792969 94.1875 C 315.792969 93.769531 315.457031 93.433594 315.046875 93.433594 L 311.492188 93.433594 C 311.078125 93.433594 310.742188 93.769531 310.742188 94.1875 C 310.742188 94.601562 311.078125 94.941406 311.492188 94.941406 Z M 311.492188 94.941406 " fill-opacity="1" fill-rule="nonzero"/><path fill="#000000" d="M 311.492188 110.222656 L 315.046875 110.222656 C 315.457031 110.222656 315.792969 109.886719 315.792969 109.46875 L 315.792969 105.894531 C 315.792969 105.476562 315.457031 105.140625 315.046875 105.140625 C 314.632812 105.140625 314.296875 105.476562 314.296875 105.894531 L 314.296875 108.71875 L 311.492188 108.71875 C 311.078125 108.71875 310.742188 109.054688 310.742188 109.46875 C 310.742188 109.886719 311.078125 110.222656 311.492188 110.222656 Z M 311.492188 110.222656 " fill-opacity="1" fill-rule="nonzero"/><path fill="#000000" d="M 142.269531 104.519531 L 141.308594 104.519531 C 141.03125 104.519531 140.78125 104.40625 140.597656 104.222656 L 140.570312 104.195312 C 140.402344 104.015625 140.300781 103.773438 140.300781 103.507812 C 140.300781 103.140625 140.003906 102.84375 139.640625 102.84375 C 139.273438 102.84375 138.980469 103.140625 138.980469 103.507812 C 138.980469 104.128906 139.222656 104.695312 139.621094 105.117188 L 139.664062 105.164062 C 140.046875 105.546875 140.558594 105.796875 141.128906 105.84375 L 141.128906 106.59375 C 141.128906 106.960938 141.425781 107.257812 141.789062 107.257812 C 142.15625 107.257812 142.453125 106.960938 142.453125 106.59375 L 142.453125 105.84375 C 143.019531 105.796875 143.535156 105.546875 143.917969 105.164062 L 143.917969 105.160156 C 144.339844 104.738281 144.601562 104.152344 144.601562 103.507812 C 144.601562 102.863281 144.339844 102.277344 143.917969 101.851562 L 143.914062 101.851562 C 143.492188 101.425781 142.910156 101.164062 142.269531 101.164062 L 141.308594 101.164062 C 141.03125 101.164062 140.78125 101.046875 140.597656 100.863281 L 140.570312 100.835938 C 140.402344 100.65625 140.300781 100.414062 140.300781 100.148438 C 140.300781 99.867188 140.414062 99.617188 140.59375 99.433594 L 140.597656 99.433594 C 140.78125 99.25 141.03125 99.132812 141.308594 99.132812 L 142.269531 99.132812 C 142.550781 99.132812 142.800781 99.25 142.984375 99.433594 C 143.164062 99.617188 143.277344 99.871094 143.277344 100.148438 C 143.277344 100.515625 143.574219 100.8125 143.941406 100.8125 C 144.304688 100.8125 144.601562 100.515625 144.601562 100.148438 C 144.601562 99.503906 144.339844 98.917969 143.917969 98.496094 L 143.914062 98.492188 C 143.535156 98.109375 143.019531 97.859375 142.453125 97.8125 L 142.453125 97.0625 C 142.453125 96.691406 142.15625 96.394531 141.789062 96.394531 C 141.425781 96.394531 141.128906 96.691406 141.128906 97.0625 L 141.128906 97.8125 C 140.558594 97.855469 140.046875 98.109375 139.664062 98.492188 C 139.242188 98.917969 138.980469 99.503906 138.980469 100.148438 C 138.980469 100.769531 139.222656 101.335938 139.621094 101.757812 L 139.664062 101.804688 C 140.085938 102.226562 140.667969 102.492188 141.308594 102.492188 L 142.273438 102.492188 C 142.550781 102.492188 142.800781 102.605469 142.984375 102.789062 C 143.167969 102.972656 143.28125 103.226562 143.28125 103.503906 C 143.28125 103.785156 143.167969 104.039062 142.984375 104.222656 C 142.800781 104.40625 142.546875 104.519531 142.269531 104.519531 Z M 142.269531 104.519531 " fill-opacity="1" fill-rule="nonzero"/><path fill="#000000" d="M 141.789062 110.261719 C 144.105469 110.261719 146.199219 109.316406 147.71875 107.792969 C 149.234375 106.265625 150.171875 104.15625 150.171875 101.828125 C 150.171875 99.5 149.234375 97.390625 147.71875 95.863281 C 146.199219 94.335938 144.105469 93.394531 141.789062 93.394531 C 139.476562 93.394531 137.378906 94.339844 135.863281 95.863281 C 134.347656 97.390625 133.410156 99.5 133.410156 101.828125 C 133.410156 104.15625 134.347656 106.265625 135.863281 107.792969 C 137.378906 109.316406 139.476562 110.261719 141.789062 110.261719 Z M 136.921875 96.929688 C 138.167969 95.675781 139.890625 94.902344 141.789062 94.902344 C 143.691406 94.902344 145.414062 95.679688 146.65625 96.929688 C 147.902344 98.183594 148.671875 99.914062 148.671875 101.828125 C 148.671875 103.738281 147.902344 105.472656 146.65625 106.726562 C 145.414062 107.980469 143.691406 108.753906 141.789062 108.753906 C 139.890625 108.753906 138.167969 107.976562 136.921875 106.726562 C 135.679688 105.472656 134.90625 103.738281 134.90625 101.828125 C 134.90625 99.914062 135.679688 98.183594 136.921875 96.929688 Z M 136.921875 96.929688 " fill-opacity="1" fill-rule="nonzero"/><g clip-path="url(#7ef76476cd)"><path fill="#000000" d="M 168.621094 108.054688 L 165.019531 90.519531 L 165.019531 90.515625 C 165.019531 90.410156 164.996094 90.308594 164.957031 90.214844 L 164.070312 85.902344 C 163.988281 85.496094 163.59375 85.234375 163.191406 85.316406 L 141.804688 89.765625 L 119.308594 89.765625 C 118.898438 89.765625 118.5625 90.101562 118.5625 90.515625 L 118.5625 113.136719 C 118.5625 113.554688 118.898438 113.890625 119.308594 113.890625 L 122.382812 113.890625 L 123.128906 117.511719 C 123.210938 117.917969 123.605469 118.179688 124.007812 118.097656 L 144.230469 113.890625 L 164.269531 113.890625 C 164.683594 113.890625 165.019531 113.554688 165.019531 113.136719 L 165.019531 109.570312 L 168.035156 108.941406 C 168.441406 108.859375 168.703125 108.460938 168.621094 108.054688 Z M 162.761719 86.941406 L 163.339844 89.765625 L 149.179688 89.765625 Z M 124.4375 116.472656 L 123.910156 113.890625 L 136.855469 113.890625 Z M 163.519531 112.386719 L 120.058594 112.386719 L 120.058594 91.273438 L 163.519531 91.273438 Z M 165.019531 108.035156 L 165.019531 97.945312 L 167.007812 107.621094 Z M 165.019531 108.035156 " fill-opacity="1" fill-rule="nonzero"/></g><path fill="#000000" d="M 123.160156 98.515625 C 123.574219 98.515625 123.910156 98.179688 123.910156 97.765625 L 123.910156 94.941406 L 126.714844 94.941406 C 127.128906 94.941406 127.464844 94.601562 127.464844 94.1875 C 127.464844 93.769531 127.128906 93.433594 126.714844 93.433594 L 123.160156 93.433594 C 122.746094 93.433594 122.414062 93.769531 122.414062 94.1875 L 122.414062 97.765625 C 122.410156 98.179688 122.746094 98.515625 123.160156 98.515625 Z M 123.160156 98.515625 " fill-opacity="1" fill-rule="nonzero"/><path fill="#000000" d="M 126.714844 108.714844 L 123.910156 108.714844 L 123.910156 105.890625 C 123.910156 105.476562 123.574219 105.136719 123.160156 105.136719 C 122.746094 105.136719 122.414062 105.476562 122.414062 105.890625 L 122.414062 109.46875 C 122.414062 109.886719 122.746094 110.222656 123.160156 110.222656 L 126.714844 110.222656 C 127.128906 110.222656 127.464844 109.886719 127.464844 109.46875 C 127.464844 109.054688 127.128906 108.714844 126.714844 108.714844 Z M 126.714844 108.714844 " fill-opacity="1" fill-rule="nonzero"/><path fill="#000000" d="M 156.863281 94.941406 L 159.671875 94.941406 L 159.671875 97.765625 C 159.671875 98.179688 160.007812 98.515625 160.417969 98.515625 C 160.832031 98.515625 161.167969 98.179688 161.167969 97.765625 L 161.167969 94.1875 C 161.167969 93.769531 160.832031 93.433594 160.417969 93.433594 L 156.863281 93.433594 C 156.449219 93.433594 156.117188 93.769531 156.117188 94.1875 C 156.117188 94.601562 156.449219 94.941406 156.863281 94.941406 Z M 156.863281 94.941406 " fill-opacity="1" fill-rule="nonzero"/><path fill="#000000" d="M 156.863281 110.222656 L 160.417969 110.222656 C 160.832031 110.222656 161.167969 109.886719 161.167969 109.46875 L 161.167969 105.894531 C 161.167969 105.476562 160.832031 105.140625 160.417969 105.140625 C 160.007812 105.140625 159.671875 105.476562 159.671875 105.894531 L 159.671875 108.71875 L 156.863281 108.71875 C 156.449219 108.71875 156.117188 109.054688 156.117188 109.46875 C 156.117188 109.886719 156.449219 110.222656 156.863281 110.222656 Z M 156.863281 110.222656 " fill-opacity="1" fill-rule="nonzero"/></svg>