<svg xmlns="http://www.w3.org/2000/svg" xmlns:xlink="http://www.w3.org/1999/xlink" width="559" zoomAndPan="magnify" viewBox="0 0 419.25 297.75" height="397" preserveAspectRatio="xMidYMid meet" version="1.0"><defs><clipPath id="5b6b925f9b"><path d="M 0 0.140625 L 418.5 0.140625 L 418.5 297.359375 L 0 297.359375 Z M 0 0.140625 " clip-rule="nonzero"/></clipPath><clipPath id="7a1dfcdccb"><path d="M 68.910156 0.140625 L 372.117188 0.140625 L 372.117188 297.359375 L 68.910156 297.359375 Z M 68.910156 0.140625 " clip-rule="nonzero"/></clipPath></defs><g clip-path="url(#5b6b925f9b)"><path fill="#ffffff" d="M 0 0.140625 L 418.5 0.140625 L 418.5 297.359375 L 0 297.359375 Z M 0 0.140625 " fill-opacity="1" fill-rule="nonzero"/><path fill="#ffffff" d="M 0 0.140625 L 418.5 0.140625 L 418.5 297.359375 L 0 297.359375 Z M 0 0.140625 " fill-opacity="1" fill-rule="nonzero"/></g><g clip-path="url(#7a1dfcdccb)"><path fill="#000000" d="M 334.734375 50.503906 C 329.179688 47.925781 324.171875 44.355469 319.957031 40.027344 C 315.796875 35.761719 312.394531 30.726562 309.960938 25.15625 C 309.265625 23.320312 307.492188 22.019531 305.40625 22.019531 L 135.707031 22.019531 C 133.820312 22.019531 132.023438 23.125 131.234375 24.96875 C 128.800781 30.605469 125.363281 35.699219 121.15625 40.019531 C 117.011719 44.273438 112.109375 47.796875 106.667969 50.359375 C 104.839844 51.066406 103.542969 52.839844 103.542969 54.910156 L 103.558594 90.65625 C 103.558594 92.5 104.605469 94.25 106.386719 95.066406 C 111.941406 97.644531 116.949219 101.214844 121.164062 105.542969 C 125.324219 109.8125 128.726562 114.84375 131.160156 120.414062 C 131.855469 122.25 133.628906 123.554688 135.714844 123.554688 L 305.414062 123.554688 C 307.300781 123.554688 309.097656 122.445312 309.886719 120.605469 C 312.320312 114.964844 315.757812 109.863281 319.964844 105.550781 C 324.109375 101.296875 329.011719 97.773438 334.453125 95.210938 C 336.28125 94.507812 337.578125 92.734375 337.578125 90.664062 L 337.5625 54.917969 C 337.5625 53.082031 336.515625 51.324219 334.734375 50.503906 Z M 220.554688 113.8125 C 209.230469 113.8125 198.96875 109.21875 191.550781 101.800781 C 184.132812 94.378906 179.539062 84.121094 179.539062 72.789062 C 179.539062 61.464844 184.132812 51.203125 191.550781 43.78125 C 198.96875 36.359375 209.222656 31.765625 220.554688 31.765625 C 231.882812 31.765625 242.136719 36.359375 249.554688 43.78125 C 256.972656 51.203125 261.566406 61.457031 261.566406 72.789062 C 261.566406 84.113281 256.972656 94.378906 249.554688 101.800781 C 242.136719 109.21875 231.882812 113.8125 220.554688 113.8125 Z M 128.121094 98.78125 C 123.800781 94.347656 118.800781 90.582031 113.28125 87.664062 L 113.28125 57.925781 C 118.800781 55 123.800781 51.230469 128.121094 46.804688 C 132.417969 42.394531 136.039062 37.324219 138.804688 31.773438 L 190.671875 31.773438 C 188.542969 33.328125 186.527344 35.042969 184.667969 36.898438 C 175.484375 46.085938 169.800781 58.78125 169.800781 72.796875 C 169.800781 86.8125 175.484375 99.511719 184.667969 108.695312 C 186.535156 110.5625 188.542969 112.265625 190.671875 113.820312 L 138.804688 113.820312 C 136.039062 108.265625 132.417969 103.195312 128.121094 98.78125 Z M 327.824219 87.65625 C 322.3125 90.582031 317.304688 94.339844 312.992188 98.773438 C 308.695312 103.1875 305.074219 108.257812 302.308594 113.8125 L 250.441406 113.8125 C 252.570312 112.257812 254.585938 110.546875 256.445312 108.6875 C 265.628906 99.503906 271.3125 86.804688 271.3125 72.789062 C 271.3125 58.773438 265.628906 46.078125 256.445312 36.890625 C 254.578125 35.027344 252.570312 33.320312 250.441406 31.765625 L 302.308594 31.765625 C 305.082031 37.316406 308.695312 42.386719 312.992188 46.796875 C 317.3125 51.230469 322.3125 55 327.832031 57.917969 L 327.832031 87.65625 Z M 213.617188 58.707031 C 212.574219 59.738281 211.929688 61.175781 211.929688 62.753906 C 211.929688 64.324219 212.582031 65.761719 213.617188 66.800781 C 214.65625 67.839844 216.097656 68.492188 217.664062 68.492188 L 223.449219 68.492188 C 227.394531 68.492188 230.980469 70.105469 233.574219 72.699219 C 236.164062 75.292969 237.777344 78.875 237.777344 82.824219 C 237.777344 86.773438 236.164062 90.359375 233.574219 92.953125 L 233.277344 93.21875 C 231.019531 95.355469 228.085938 96.765625 224.851562 97.089844 L 224.851562 101.277344 C 224.851562 103.648438 222.925781 105.574219 220.554688 105.574219 C 218.179688 105.574219 216.257812 103.648438 216.257812 101.277344 L 216.257812 97.089844 C 212.867188 96.757812 209.816406 95.234375 207.535156 92.953125 C 204.941406 90.359375 203.328125 86.773438 203.328125 82.824219 C 203.328125 80.453125 205.253906 78.527344 207.625 78.527344 C 209.996094 78.527344 211.921875 80.453125 211.921875 82.824219 C 211.921875 84.394531 212.574219 85.835938 213.609375 86.875 C 214.648438 87.914062 216.089844 88.5625 217.65625 88.5625 L 223.441406 88.5625 C 224.933594 88.5625 226.296875 87.996094 227.3125 87.054688 L 227.488281 86.875 C 228.527344 85.835938 229.175781 84.394531 229.175781 82.824219 C 229.175781 81.257812 228.527344 79.816406 227.488281 78.777344 C 226.449219 77.738281 225.007812 77.085938 223.441406 77.085938 L 217.65625 77.085938 C 213.710938 77.085938 210.125 75.472656 207.535156 72.882812 C 204.941406 70.289062 203.328125 66.703125 203.328125 62.753906 C 203.328125 58.820312 204.941406 55.242188 207.535156 52.640625 L 207.535156 52.625 C 209.816406 50.34375 212.867188 48.820312 216.257812 48.488281 L 216.257812 44.304688 C 216.257812 41.929688 218.179688 40.007812 220.554688 40.007812 C 222.925781 40.007812 224.851562 41.929688 224.851562 44.304688 L 224.851562 48.488281 C 228.238281 48.820312 231.285156 50.34375 233.566406 52.625 C 236.15625 55.21875 237.769531 58.804688 237.769531 62.753906 C 237.769531 65.125 235.847656 67.050781 233.472656 67.050781 C 231.101562 67.050781 229.175781 65.125 229.175781 62.753906 C 229.175781 61.175781 228.527344 59.746094 227.488281 58.707031 C 226.449219 57.667969 225.007812 57.015625 223.441406 57.015625 L 220.597656 57.015625 C 220.582031 57.015625 220.566406 57.015625 220.546875 57.015625 C 220.53125 57.015625 220.515625 57.015625 220.492188 57.015625 L 217.652344 57.015625 C 216.097656 57.023438 214.65625 57.667969 213.617188 58.707031 Z M 372.097656 141.625 C 372.097656 135.734375 369.859375 129.84375 365.40625 125.378906 L 365.382812 125.359375 C 364.238281 124.222656 362.996094 123.210938 361.683594 122.363281 C 361.320312 122.128906 360.949219 121.902344 360.570312 121.6875 L 360.570312 5.207031 C 360.570312 2.515625 358.386719 0.332031 355.695312 0.332031 L 85.410156 0.332031 C 82.71875 0.332031 80.535156 2.515625 80.535156 5.207031 L 80.535156 140.382812 C 80.535156 143.074219 82.71875 145.253906 85.410156 145.253906 L 270.351562 145.253906 L 252.398438 163.214844 L 147.042969 163.304688 C 146.914062 163.289062 146.785156 163.265625 146.65625 163.257812 C 143.421875 163.03125 140.117188 163.5 137.003906 164.660156 C 134.128906 165.730469 131.433594 167.382812 129.113281 169.625 L 128.808594 169.90625 L 70.417969 228.3125 C 69.382812 229.347656 68.910156 230.75 69.011719 232.117188 L 69.011719 291.863281 L 68.988281 292.292969 C 68.988281 294.984375 71.167969 297.167969 73.859375 297.167969 L 127.035156 297.152344 C 128.308594 297.152344 129.582031 296.652344 130.539062 295.660156 L 143.777344 281.878906 L 265.554688 251.21875 C 269.476562 249.996094 273.457031 247.707031 277.335938 244.796875 C 281.035156 242.023438 284.648438 238.695312 288.039062 235.214844 C 288.058594 235.195312 288.074219 235.171875 288.097656 235.148438 C 288.242188 235.035156 288.386719 234.914062 288.515625 234.777344 L 365.398438 157.875 C 369.867188 153.40625 372.109375 147.5 372.109375 141.617188 L 372.097656 141.617188 Z M 90.28125 10.078125 L 350.824219 10.078125 L 350.824219 135.507812 L 90.28125 135.507812 Z M 312.992188 145.253906 L 277.09375 181.164062 C 276.125 176.835938 273.941406 172.96875 270.910156 169.953125 C 268.964844 168.003906 266.667969 166.402344 264.136719 165.253906 L 284.128906 145.253906 Z M 362.375 141.625 C 362.375 145.027344 361.085938 148.425781 358.515625 151 L 281.632812 227.894531 C 281.558594 227.96875 281.488281 228.046875 281.421875 228.128906 C 281.300781 228.226562 281.1875 228.332031 281.082031 228.449219 C 277.980469 231.632812 274.738281 234.632812 271.523438 237.042969 C 268.570312 239.257812 265.644531 240.984375 262.921875 241.871094 L 140.070312 272.785156 C 139.0625 273.035156 138.207031 273.585938 137.570312 274.324219 L 124.984375 287.421875 L 78.710938 287.421875 L 78.710938 233.792969 L 135.902344 176.570312 C 137.230469 175.304688 138.761719 174.363281 140.382812 173.757812 C 142.164062 173.097656 144.089844 172.832031 146.003906 172.960938 C 146.097656 172.96875 146.195312 172.960938 146.285156 172.96875 C 146.484375 172.992188 146.6875 173.015625 146.890625 173.015625 L 254.679688 172.921875 L 254.691406 172.945312 C 258.339844 172.945312 261.648438 174.429688 264.03125 176.820312 L 264.03125 176.84375 C 266.441406 179.253906 267.941406 182.566406 267.949219 186.1875 L 267.925781 186.203125 C 267.925781 189.84375 266.433594 193.15625 264.03125 195.558594 C 261.628906 197.960938 258.316406 199.453125 254.679688 199.453125 L 179.652344 199.453125 C 176.960938 199.453125 174.78125 201.636719 174.78125 204.328125 C 174.78125 207.019531 176.960938 209.203125 179.652344 209.203125 L 254.679688 209.203125 C 261.007812 209.203125 266.757812 206.617188 270.917969 202.449219 C 272.472656 200.894531 273.804688 199.121094 274.867188 197.171875 L 326.761719 145.261719 L 355.6875 145.261719 C 358.378906 145.261719 360.5625 143.082031 360.5625 140.390625 L 360.5625 134.925781 C 361.765625 136.984375 362.386719 139.3125 362.386719 141.632812 L 362.375 141.632812 Z M 362.375 141.625 " fill-opacity="1" fill-rule="nonzero"/></g></svg>