<svg xmlns="http://www.w3.org/2000/svg" xmlns:xlink="http://www.w3.org/1999/xlink" width="559" zoomAndPan="magnify" viewBox="0 0 419.25 297.75" height="397" preserveAspectRatio="xMidYMid meet" version="1.0"><defs><clipPath id="86e36b8804"><path d="M 0 0.140625 L 418.5 0.140625 L 418.5 297.359375 L 0 297.359375 Z M 0 0.140625 " clip-rule="nonzero"/></clipPath><clipPath id="7587cfdd98"><path d="M 70 175 L 349 175 L 349 297.359375 L 70 297.359375 Z M 70 175 " clip-rule="nonzero"/></clipPath><clipPath id="bb6c4bfd0f"><path d="M 205 0.140625 L 401 0.140625 L 401 102 L 205 102 Z M 205 0.140625 " clip-rule="nonzero"/></clipPath><clipPath id="bd869ac4eb"><path d="M 18 0.140625 L 214 0.140625 L 214 102 L 18 102 Z M 18 0.140625 " clip-rule="nonzero"/></clipPath><clipPath id="b422dedf3d"><path d="M 205 125 L 214 125 L 214 297.359375 L 205 297.359375 Z M 205 125 " clip-rule="nonzero"/></clipPath></defs><g clip-path="url(#86e36b8804)"><path fill="#ffffff" d="M 0 0.140625 L 418.5 0.140625 L 418.5 297.359375 L 0 297.359375 Z M 0 0.140625 " fill-opacity="1" fill-rule="nonzero"/><path fill="#ffffff" d="M 0 0.140625 L 418.5 0.140625 L 418.5 297.359375 L 0 297.359375 Z M 0 0.140625 " fill-opacity="1" fill-rule="nonzero"/></g><path fill="#231f20" d="M 209.417969 125.921875 C 209.648438 125.777344 209.886719 125.652344 210.132812 125.546875 C 209.664062 125.566406 209.183594 125.566406 208.691406 125.542969 C 208.941406 125.648438 209.179688 125.777344 209.417969 125.921875 Z M 209.417969 125.921875 " fill-opacity="1" fill-rule="nonzero"/><path fill="#231f20" d="M 337.484375 94.816406 C 337.492188 94.8125 337.5 94.8125 337.503906 94.8125 C 337.53125 94.804688 337.5625 94.796875 337.589844 94.789062 C 337.75 94.75 337.726562 94.726562 337.484375 94.816406 Z M 337.484375 94.816406 " fill-opacity="1" fill-rule="nonzero"/><path fill="#231f20" d="M 340.617188 257.371094 C 341.199219 257.027344 340.222656 257.363281 340.617188 257.371094 Z M 340.617188 257.371094 " fill-opacity="1" fill-rule="nonzero"/><g clip-path="url(#7587cfdd98)"><path fill="#231f20" d="M 341.011719 177.609375 C 341.011719 181.421875 341.011719 185.238281 341.011719 189.046875 C 341.011719 204.972656 341.011719 220.902344 341.011719 236.832031 C 341.011719 241.8125 341.011719 246.792969 341.011719 251.773438 C 341.011719 253.09375 341.011719 254.40625 341.011719 255.71875 C 341.011719 256.03125 341.011719 256.335938 341.011719 256.648438 C 341.011719 256.703125 341.011719 256.761719 341.011719 256.824219 C 341.011719 256.832031 341.011719 256.84375 341.011719 256.847656 C 341.011719 256.886719 341.011719 256.917969 341.011719 256.949219 C 341.007812 256.964844 340.996094 256.984375 340.988281 257.011719 C 340.96875 257.046875 340.9375 257.105469 340.90625 257.171875 C 340.890625 257.1875 340.875 257.199219 340.859375 257.222656 C 340.835938 257.242188 340.816406 257.265625 340.796875 257.285156 C 340.757812 257.304688 340.699219 257.332031 340.621094 257.371094 C 340.648438 257.375 340.683594 257.371094 340.726562 257.371094 C 340.683594 257.371094 340.644531 257.375 340.609375 257.375 C 340.589844 257.390625 340.574219 257.398438 340.550781 257.410156 C 340.574219 257.398438 340.589844 257.390625 340.605469 257.382812 C 340.230469 257.40625 339.957031 257.390625 339.4375 257.515625 C 339.375 257.535156 339.308594 257.542969 339.242188 257.5625 C 338.898438 257.644531 338.5625 257.734375 338.21875 257.816406 C 336.753906 258.179688 335.285156 258.539062 333.820312 258.902344 C 328.347656 260.253906 322.875 261.605469 317.398438 262.960938 C 300.980469 267.019531 284.558594 271.074219 268.136719 275.132812 C 253.351562 278.789062 238.5625 282.441406 223.777344 286.09375 C 220.347656 286.941406 216.917969 287.785156 213.492188 288.636719 C 213.273438 288.6875 213.054688 288.742188 212.835938 288.800781 C 212.828125 288.800781 212.820312 288.800781 212.8125 288.804688 C 212.316406 288.925781 211.828125 289.140625 211.332031 289.273438 C 211.445312 289.246094 210.167969 289.457031 210.410156 289.445312 C 209.695312 289.511719 208.980469 289.484375 208.273438 289.425781 C 208.65625 289.453125 207.867188 289.347656 207.746094 289.320312 C 207.410156 289.25 207.082031 289.164062 206.753906 289.0625 C 206.65625 289.035156 206.519531 288.984375 206.394531 288.9375 C 206.289062 288.890625 206.210938 288.855469 206.082031 288.824219 C 206.003906 288.789062 205.976562 288.777344 206.050781 288.808594 C 206.035156 288.804688 206.023438 288.804688 206.007812 288.800781 C 205.9375 288.78125 205.867188 288.765625 205.796875 288.742188 C 205.445312 288.660156 205.085938 288.570312 204.738281 288.480469 C 194.066406 285.847656 183.398438 283.210938 172.726562 280.574219 C 155.707031 276.367188 138.683594 272.164062 121.65625 267.957031 C 109.003906 264.828125 96.351562 261.703125 83.699219 258.574219 C 82.472656 258.273438 81.25 257.972656 80.027344 257.664062 C 79.820312 257.617188 79.613281 257.566406 79.40625 257.515625 C 79.058594 257.433594 78.824219 257.394531 78.351562 257.371094 C 78.3125 257.371094 78.277344 257.371094 78.246094 257.363281 C 78.210938 257.355469 78.167969 257.339844 78.109375 257.324219 C 78.105469 257.324219 78.105469 257.316406 78.101562 257.316406 C 78.566406 257.433594 78.082031 257.171875 78.023438 257.222656 C 77.960938 257.144531 77.902344 257.070312 77.855469 257.015625 C 77.847656 256.988281 77.839844 256.953125 77.832031 256.914062 C 77.828125 256.894531 77.828125 256.863281 77.828125 256.832031 C 77.828125 254.707031 77.828125 252.574219 77.828125 250.449219 C 77.828125 237.625 77.828125 224.804688 77.828125 211.980469 C 77.828125 200.527344 77.828125 189.066406 77.828125 177.609375 C 75.894531 177.148438 73.964844 176.679688 72.035156 176.21875 C 71.363281 176.050781 70.6875 175.890625 70.011719 175.730469 C 70.011719 176.738281 70.011719 177.753906 70.011719 178.773438 C 70.011719 195.570312 70.011719 212.371094 70.011719 229.171875 C 70.011719 238.199219 70.011719 247.226562 70.011719 256.25 C 70.011719 259.578125 71.511719 262.832031 74.652344 264.304688 C 75.671875 264.789062 76.554688 264.984375 77.628906 265.128906 C 77.972656 265.214844 78.320312 265.296875 78.664062 265.386719 C 82.566406 266.347656 86.472656 267.316406 90.378906 268.28125 C 105.601562 272.042969 120.816406 275.796875 136.035156 279.5625 C 152.195312 283.550781 168.347656 287.546875 184.503906 291.535156 C 189.582031 292.792969 194.667969 294.046875 199.746094 295.304688 C 200.945312 295.601562 202.152344 295.902344 203.351562 296.195312 C 203.546875 296.246094 203.742188 296.289062 203.941406 296.339844 C 202.910156 296.082031 202.476562 295.738281 204.015625 296.367188 C 204.296875 296.484375 204.59375 296.574219 204.890625 296.664062 C 206.542969 297.152344 208.339844 297.335938 210.054688 297.285156 C 212.144531 297.222656 214.074219 296.546875 216.066406 296.050781 C 217.515625 295.695312 218.960938 295.339844 220.40625 294.984375 C 225.847656 293.636719 231.296875 292.289062 236.738281 290.945312 C 253.140625 286.890625 269.542969 282.835938 285.945312 278.785156 C 300.765625 275.125 315.589844 271.464844 330.410156 267.800781 C 333.875 266.945312 337.339844 266.089844 340.808594 265.230469 C 341.035156 265.171875 341.269531 265.117188 341.496094 265.058594 C 341.507812 265.058594 341.515625 265.050781 341.527344 265.050781 C 339.671875 265.507812 342.144531 265.011719 342.253906 264.992188 C 342.601562 264.917969 342.921875 264.828125 343.253906 264.699219 C 345.265625 263.941406 347.019531 262.523438 347.949219 260.550781 C 348.691406 258.96875 348.832031 257.398438 348.832031 255.71875 C 348.832031 246 348.832031 236.285156 348.832031 226.566406 C 348.832031 209.621094 348.832031 192.671875 348.832031 175.730469 C 346.222656 176.359375 343.621094 176.988281 341.011719 177.609375 Z M 78.066406 257.3125 L 78.070312 257.3125 C 78.042969 257.304688 78.015625 257.292969 77.988281 257.289062 C 78.015625 257.292969 78.042969 257.296875 78.066406 257.3125 Z M 77.957031 257.210938 C 77.921875 257.160156 77.894531 257.121094 77.871094 257.089844 C 77.867188 257.082031 77.867188 257.082031 77.867188 257.074219 C 77.890625 257.117188 77.917969 257.152344 77.957031 257.210938 Z M 77.832031 257.039062 C 77.832031 257.039062 77.832031 257.03125 77.832031 257.027344 C 77.84375 257.039062 77.855469 257.054688 77.863281 257.070312 L 77.863281 257.074219 C 77.851562 257.0625 77.84375 257.054688 77.832031 257.039062 Z M 77.851562 257.015625 C 77.84375 257.003906 77.839844 256.996094 77.828125 256.992188 C 77.828125 256.972656 77.828125 256.941406 77.828125 256.921875 C 77.839844 256.953125 77.847656 256.988281 77.851562 257.015625 Z M 77.335938 265.058594 C 77.414062 265.074219 77.492188 265.097656 77.566406 265.113281 C 77.582031 265.117188 77.597656 265.125 77.613281 265.125 C 77.066406 265.046875 77.136719 265.007812 77.335938 265.058594 Z M 77.738281 265.144531 C 77.820312 265.152344 77.902344 265.164062 77.984375 265.171875 C 77.894531 265.160156 77.8125 265.152344 77.738281 265.144531 Z M 77.738281 265.144531 " fill-opacity="1" fill-rule="nonzero"/></g><path fill="#231f20" d="M 340.621094 257.371094 L 340.617188 257.371094 C 340.613281 257.375 340.609375 257.375 340.605469 257.382812 C 340.605469 257.375 340.609375 257.375 340.609375 257.375 C 340.609375 257.375 340.617188 257.375 340.621094 257.371094 Z M 340.621094 257.371094 " fill-opacity="1" fill-rule="nonzero"/><path fill="#231f20" d="M 212.300781 137.042969 C 213.859375 133.8125 213.53125 130.457031 211.316406 127.628906 C 210.523438 126.617188 209.265625 125.613281 207.992188 125.308594 C 207.558594 125.203125 207.121094 125.097656 206.679688 124.992188 C 204.355469 124.429688 202.03125 123.871094 199.703125 123.3125 C 190.777344 121.164062 181.847656 119.011719 172.921875 116.863281 C 161.1875 114.039062 149.453125 111.210938 137.714844 108.386719 C 126.652344 105.722656 115.585938 103.058594 104.519531 100.394531 C 97.601562 98.726562 90.679688 97.058594 83.757812 95.394531 C 83.082031 95.230469 82.40625 95.070312 81.730469 94.90625 C 81.589844 94.871094 81.449219 94.835938 81.308594 94.804688 C 81.289062 94.800781 81.269531 94.792969 81.25 94.789062 C 81.480469 94.882812 81.714844 94.976562 81.949219 95.070312 C 81.558594 94.90625 81.167969 94.738281 80.777344 94.578125 C 80.542969 94.480469 80.292969 94.425781 80.046875 94.371094 C 79.238281 94.191406 78.371094 94.101562 77.539062 94.195312 C 75.699219 94.410156 74.226562 95.019531 72.769531 96.164062 C 72.167969 96.632812 71.714844 97.207031 71.269531 97.828125 C 70.964844 98.25 70.671875 98.535156 71.457031 97.699219 C 71.339844 97.824219 71.21875 97.949219 71.101562 98.078125 C 70.402344 98.820312 69.707031 99.566406 69.007812 100.308594 C 62.210938 107.539062 55.417969 114.769531 48.625 122 C 41.027344 130.082031 33.429688 138.167969 25.832031 146.253906 C 24.066406 148.136719 22.296875 150.011719 20.53125 151.894531 C 16.707031 155.96875 19.152344 163.488281 24.496094 164.773438 C 29.9375 166.078125 35.378906 167.390625 40.820312 168.699219 C 51.226562 171.203125 61.628906 173.714844 72.035156 176.21875 C 83.925781 179.078125 95.816406 181.941406 107.703125 184.804688 C 117.601562 187.1875 127.503906 189.574219 137.402344 191.957031 C 141.835938 193.023438 146.273438 194.09375 150.703125 195.15625 C 150.984375 195.230469 150.867188 195.285156 150.054688 194.890625 C 151.800781 195.734375 153.597656 195.953125 155.5 195.625 C 157.019531 195.363281 158.242188 194.574219 159.433594 193.640625 C 160.015625 193.1875 160.460938 192.511719 160.882812 191.929688 C 161.40625 191.195312 160.296875 192.523438 160.550781 192.257812 C 160.957031 191.824219 161.367188 191.382812 161.773438 190.949219 C 164.195312 188.378906 166.613281 185.800781 169.035156 183.230469 C 177.011719 174.738281 184.992188 166.246094 192.96875 157.757812 C 198.917969 151.429688 204.859375 145.101562 210.804688 138.777344 C 211.097656 138.460938 211.394531 138.148438 211.6875 137.835938 C 213.144531 136.28125 213.230469 133.847656 211.6875 132.304688 C 210.214844 130.835938 207.621094 130.753906 206.15625 132.304688 C 201.777344 136.96875 197.394531 141.632812 193.011719 146.296875 C 184.839844 154.996094 176.667969 163.695312 168.496094 172.386719 C 164 177.175781 159.503906 181.953125 155.007812 186.742188 C 154.617188 187.15625 154.410156 187.53125 154.132812 187.976562 C 154.65625 187.144531 154.300781 187.738281 154.089844 187.949219 C 153.472656 188.554688 154.816406 187.476562 154.089844 187.921875 C 153.363281 188.371094 154.9375 187.644531 154.132812 187.921875 C 153.867188 188.015625 153.058594 188.109375 154.222656 187.972656 C 153.976562 188 153.730469 187.988281 153.484375 187.980469 C 154.628906 188.03125 153.652344 187.960938 153.308594 187.84375 C 154.492188 188.253906 153.125 187.703125 152.652344 187.589844 C 152.132812 187.464844 151.613281 187.335938 151.089844 187.207031 C 148.625 186.617188 146.15625 186.023438 143.6875 185.429688 C 134.582031 183.234375 125.476562 181.042969 116.367188 178.851562 C 104.59375 176.015625 92.820312 173.179688 81.042969 170.34375 C 70.078125 167.703125 59.113281 165.0625 48.144531 162.421875 C 41.460938 160.8125 34.777344 159.203125 28.09375 157.59375 C 27.5 157.453125 26.90625 157.3125 26.3125 157.167969 C 26.214844 157.144531 26.117188 157.113281 26.019531 157.09375 C 26.183594 157.132812 27.117188 157.617188 26.5 157.222656 C 27.328125 157.75 26.742188 157.402344 26.527344 157.183594 C 25.921875 156.566406 27.003906 157.90625 26.554688 157.183594 C 26.105469 156.453125 26.835938 158.035156 26.554688 157.230469 C 26.460938 156.960938 26.371094 156.152344 26.503906 157.316406 C 26.476562 157.074219 26.488281 156.820312 26.5 156.574219 C 26.445312 157.722656 26.515625 156.746094 26.632812 156.398438 C 26.226562 157.578125 25.480469 158.035156 26.097656 157.378906 C 26.347656 157.113281 26.589844 156.855469 26.839844 156.59375 C 27.757812 155.613281 28.675781 154.636719 29.59375 153.65625 C 36.804688 145.988281 44.015625 138.304688 51.226562 130.632812 C 58.492188 122.902344 65.761719 115.167969 73.027344 107.433594 C 74.347656 106.027344 75.667969 104.621094 76.992188 103.21875 C 77.386719 102.796875 77.589844 102.425781 77.871094 101.976562 C 77.347656 102.804688 77.699219 102.214844 77.910156 102.003906 C 78.527344 101.402344 77.1875 102.480469 77.910156 102.03125 C 78.640625 101.582031 77.0625 102.3125 77.867188 102.03125 C 78.132812 101.941406 78.941406 101.847656 77.78125 101.984375 C 78.023438 101.953125 78.273438 101.964844 78.515625 101.980469 C 77.371094 101.921875 78.351562 101.992188 78.695312 102.113281 C 77.511719 101.703125 78.878906 102.253906 79.347656 102.367188 C 79.871094 102.492188 80.390625 102.621094 80.910156 102.746094 C 87.382812 104.300781 93.851562 105.859375 100.324219 107.417969 C 111.195312 110.035156 122.070312 112.65625 132.945312 115.273438 C 144.753906 118.117188 156.554688 120.960938 168.363281 123.800781 C 177.621094 126.03125 186.882812 128.261719 196.140625 130.492188 C 198.730469 131.113281 201.316406 131.738281 203.90625 132.363281 C 204.5 132.503906 205.09375 132.648438 205.6875 132.789062 C 205.785156 132.816406 205.882812 132.835938 205.980469 132.863281 C 205.816406 132.820312 204.886719 132.34375 205.5 132.734375 C 204.671875 132.207031 205.261719 132.558594 205.476562 132.777344 C 206.078125 133.390625 204.996094 132.046875 205.445312 132.777344 C 205.898438 133.503906 205.167969 131.925781 205.445312 132.730469 C 205.539062 132.996094 205.632812 133.804688 205.496094 132.644531 C 205.523438 132.890625 205.515625 133.132812 205.5 133.378906 C 205.558594 132.234375 205.488281 133.214844 205.367188 133.5625 C 205.429688 133.40625 205.488281 133.25 205.550781 133.097656 C 204.625 135.019531 205.007812 137.308594 206.953125 138.449219 C 208.679688 139.460938 211.375 138.964844 212.300781 137.042969 Z M 212.300781 137.042969 " fill-opacity="1" fill-rule="nonzero"/><path fill="#231f20" d="M 213.292969 133.097656 C 213.746094 134.035156 213.394531 133.335938 213.324219 133.078125 C 213.082031 132.226562 213.371094 134.003906 213.332031 133.136719 C 213.3125 132.839844 213.46875 132.066406 213.273438 133.203125 C 213.316406 132.960938 213.394531 132.730469 213.476562 132.5 C 213.128906 133.5 213.367188 132.828125 213.523438 132.566406 C 213.003906 133.414062 213.316406 132.828125 213.542969 132.601562 C 214.148438 131.984375 212.8125 133.070312 213.558594 132.597656 C 213.089844 132.894531 212.605469 132.925781 212.855469 132.867188 C 212.949219 132.84375 213.042969 132.820312 213.132812 132.800781 C 213.71875 132.65625 214.300781 132.515625 214.886719 132.375 C 217.457031 131.757812 220.027344 131.136719 222.597656 130.519531 C 231.835938 128.292969 241.074219 126.070312 250.3125 123.847656 C 262.113281 121.003906 273.910156 118.160156 285.714844 115.324219 C 296.601562 112.699219 307.492188 110.078125 318.378906 107.457031 C 324.882812 105.890625 331.382812 104.324219 337.882812 102.761719 C 338.414062 102.632812 338.945312 102.503906 339.476562 102.375 C 339.902344 102.273438 340.070312 102.195312 340.605469 101.933594 C 339.667969 102.386719 340.367188 102.039062 340.628906 101.964844 C 341.476562 101.726562 339.703125 102.015625 340.570312 101.972656 C 340.863281 101.957031 341.636719 102.113281 340.503906 101.917969 C 340.742188 101.960938 340.972656 102.039062 341.207031 102.121094 C 340.207031 101.769531 340.878906 102.007812 341.136719 102.167969 C 340.292969 101.644531 340.875 101.960938 341.105469 102.183594 C 341.722656 102.792969 340.632812 101.457031 341.105469 102.199219 C 341.429688 102.707031 341.070312 102.390625 341.847656 103.21875 C 343.144531 104.601562 344.445312 105.984375 345.742188 107.363281 C 352.988281 115.078125 360.238281 122.792969 367.484375 130.503906 C 374.714844 138.195312 381.945312 145.890625 389.175781 153.589844 C 390.449219 154.949219 391.726562 156.300781 393 157.65625 C 391.851562 156.429688 392.097656 155.96875 392.359375 156.890625 C 392.597656 157.734375 392.3125 155.960938 392.351562 156.832031 C 392.367188 157.128906 392.214844 157.894531 392.40625 156.761719 C 392.367188 157.007812 392.285156 157.234375 392.207031 157.460938 C 392.554688 156.464844 392.320312 157.140625 392.160156 157.398438 C 392.679688 156.550781 392.367188 157.132812 392.140625 157.359375 C 391.535156 157.980469 392.867188 156.894531 392.125 157.367188 C 392.589844 157.074219 393.078125 157.039062 392.828125 157.101562 C 392.730469 157.121094 392.640625 157.144531 392.550781 157.167969 C 391.964844 157.308594 391.378906 157.449219 390.796875 157.589844 C 384.148438 159.191406 377.492188 160.792969 370.84375 162.390625 C 359.886719 165.03125 348.933594 167.667969 337.980469 170.304688 C 326.203125 173.144531 314.417969 175.976562 302.640625 178.8125 C 293.511719 181.015625 284.382812 183.214844 275.253906 185.410156 C 272.769531 186.007812 270.285156 186.609375 267.800781 187.203125 C 267.269531 187.332031 266.734375 187.460938 266.207031 187.59375 C 265.777344 187.691406 265.613281 187.769531 265.078125 188.03125 C 266.011719 187.582031 265.3125 187.925781 265.054688 188 C 264.207031 188.242188 265.980469 187.949219 265.113281 187.992188 C 264.816406 188.007812 264.046875 187.851562 265.179688 188.050781 C 264.9375 188.007812 264.707031 187.925781 264.480469 187.847656 C 265.476562 188.195312 264.800781 187.960938 264.542969 187.796875 C 265.394531 188.320312 264.804688 188.003906 264.578125 187.78125 C 263.957031 187.175781 265.050781 188.511719 264.574219 187.765625 C 264.25 187.257812 264.613281 187.574219 263.835938 186.746094 C 259.375 182.003906 254.917969 177.257812 250.460938 172.515625 C 242.292969 163.816406 234.117188 155.121094 225.945312 146.425781 C 221.527344 141.722656 217.105469 137.015625 212.683594 132.3125 C 211.222656 130.761719 208.625 130.839844 207.15625 132.3125 C 205.613281 133.855469 205.699219 136.289062 207.15625 137.839844 C 211.539062 142.503906 215.921875 147.171875 220.304688 151.835938 C 228.476562 160.527344 236.648438 169.226562 244.820312 177.921875 C 249.3125 182.707031 253.8125 187.484375 258.304688 192.273438 C 256.925781 190.808594 258.695312 192.902344 258.722656 192.929688 C 259.195312 193.511719 259.785156 193.980469 260.398438 194.410156 C 261.722656 195.335938 263.28125 195.714844 264.867188 195.8125 C 265.621094 195.855469 266.402344 195.699219 267.132812 195.539062 C 267.382812 195.484375 267.617188 195.382812 267.855469 195.289062 C 268.164062 195.15625 268.476562 195.027344 268.789062 194.894531 C 268.078125 195.136719 267.84375 195.234375 268.089844 195.175781 C 268.113281 195.164062 268.140625 195.160156 268.164062 195.15625 C 268.605469 195.050781 269.042969 194.945312 269.480469 194.839844 C 271.804688 194.28125 274.128906 193.71875 276.457031 193.164062 C 285.382812 191.007812 294.3125 188.859375 303.238281 186.714844 C 314.972656 183.886719 326.707031 181.058594 338.441406 178.238281 C 349.507812 175.574219 360.574219 172.90625 371.640625 170.242188 C 378.5625 168.578125 385.480469 166.914062 392.402344 165.242188 C 393.074219 165.082031 393.75 164.921875 394.425781 164.753906 C 396.34375 164.296875 397.800781 162.933594 398.910156 161.34375 C 400.84375 158.570312 400.542969 154.277344 398.25 151.839844 C 397.601562 151.144531 396.949219 150.445312 396.296875 149.757812 C 389.59375 142.621094 382.890625 135.488281 376.191406 128.351562 C 368.53125 120.210938 360.878906 112.0625 353.226562 103.917969 C 351.375 101.949219 349.523438 99.980469 347.671875 98.007812 C 347.570312 97.90625 347.476562 97.796875 347.375 97.695312 C 347.78125 98.128906 348.035156 98.53125 347.71875 98.039062 C 347.453125 97.617188 347.117188 97.234375 346.800781 96.84375 C 346.339844 96.277344 345.664062 95.824219 345.082031 95.417969 C 343.816406 94.535156 342.085938 94.164062 340.570312 94.15625 C 339.816406 94.152344 339.035156 94.292969 338.308594 94.5 C 337.851562 94.628906 337.265625 94.894531 336.894531 95.074219 C 337.652344 94.710938 337.835938 94.734375 337.589844 94.796875 C 337.5625 94.800781 337.53125 94.808594 337.503906 94.816406 C 337.347656 94.851562 337.1875 94.890625 337.03125 94.929688 C 331.589844 96.242188 326.148438 97.550781 320.703125 98.859375 C 310.300781 101.367188 299.898438 103.871094 289.492188 106.378906 C 277.601562 109.238281 265.714844 112.101562 253.824219 114.964844 C 243.921875 117.347656 234.023438 119.734375 224.125 122.117188 C 219.6875 123.183594 215.257812 124.25 210.820312 125.320312 C 209.203125 125.710938 207.828125 127.109375 206.914062 128.425781 C 205.101562 131.023438 205.214844 134.292969 206.542969 137.050781 C 207.472656 138.972656 210.164062 139.464844 211.894531 138.453125 C 213.835938 137.308594 214.222656 135.019531 213.292969 133.097656 Z M 213.292969 133.097656 " fill-opacity="1" fill-rule="nonzero"/><g clip-path="url(#bb6c4bfd0f)"><path fill="#231f20" d="M 206.539062 59.074219 C 204.980469 62.304688 205.304688 65.660156 207.519531 68.488281 C 208.3125 69.503906 209.574219 70.503906 210.84375 70.808594 C 211.28125 70.914062 211.71875 71.019531 212.15625 71.128906 C 214.480469 71.6875 216.808594 72.246094 219.132812 72.808594 C 228.0625 74.957031 236.988281 77.109375 245.917969 79.257812 C 257.652344 82.082031 269.386719 84.90625 281.121094 87.734375 C 292.1875 90.398438 303.253906 93.0625 314.316406 95.730469 C 321.238281 97.394531 328.15625 99.0625 335.078125 100.726562 C 335.757812 100.890625 336.429688 101.054688 337.105469 101.214844 C 337.246094 101.25 337.386719 101.285156 337.53125 101.316406 C 337.550781 101.324219 337.570312 101.328125 337.589844 101.332031 C 337.355469 101.238281 337.125 101.144531 336.890625 101.050781 C 337.28125 101.21875 337.671875 101.378906 338.0625 101.542969 C 338.296875 101.640625 338.542969 101.695312 338.789062 101.75 C 339.601562 101.933594 340.46875 102.019531 341.300781 101.925781 C 343.140625 101.710938 344.613281 101.097656 346.070312 99.957031 C 346.667969 99.484375 347.121094 98.914062 347.566406 98.292969 C 347.871094 97.867188 348.167969 97.585938 347.378906 98.421875 C 347.5 98.296875 347.617188 98.167969 347.738281 98.042969 C 348.4375 97.296875 349.132812 96.554688 349.832031 95.8125 C 356.628906 88.582031 363.421875 81.351562 370.214844 74.121094 C 377.816406 66.035156 385.410156 57.953125 393.007812 49.867188 C 394.773438 47.988281 396.539062 46.109375 398.304688 44.226562 C 402.132812 40.15625 399.6875 32.636719 394.34375 31.351562 C 388.898438 30.039062 383.460938 28.730469 378.015625 27.417969 C 367.613281 24.914062 357.207031 22.410156 346.804688 19.90625 C 334.914062 17.039062 323.023438 14.175781 311.136719 11.316406 C 301.234375 8.929688 291.335938 6.546875 281.433594 4.164062 C 277 3.09375 272.566406 2.027344 268.132812 0.960938 C 267.855469 0.894531 267.972656 0.835938 268.78125 1.230469 C 267.035156 0.386719 265.238281 0.167969 263.335938 0.496094 C 261.816406 0.757812 260.59375 1.546875 259.410156 2.476562 C 258.824219 2.933594 258.378906 3.605469 257.957031 4.191406 C 257.429688 4.925781 258.542969 3.59375 258.289062 3.863281 C 257.878906 4.300781 257.472656 4.734375 257.0625 5.167969 C 254.640625 7.742188 252.222656 10.316406 249.804688 12.890625 C 241.824219 21.382812 233.847656 29.875 225.867188 38.363281 C 219.921875 44.6875 213.980469 51.015625 208.035156 57.339844 C 207.738281 57.652344 207.445312 57.96875 207.148438 58.28125 C 205.695312 59.835938 205.609375 62.269531 207.148438 63.808594 C 208.621094 65.28125 211.21875 65.363281 212.679688 63.808594 C 217.0625 59.144531 221.445312 54.480469 225.828125 49.816406 C 234 41.121094 242.171875 32.425781 250.34375 23.730469 C 254.839844 18.949219 259.335938 14.164062 263.828125 9.382812 C 264.226562 8.960938 264.425781 8.589844 264.710938 8.140625 C 264.183594 8.972656 264.539062 8.382812 264.75 8.167969 C 265.367188 7.566406 264.023438 8.640625 264.75 8.195312 C 265.476562 7.746094 263.894531 8.476562 264.703125 8.195312 C 264.96875 8.105469 265.78125 8.011719 264.621094 8.144531 C 264.863281 8.117188 265.109375 8.128906 265.355469 8.144531 C 264.210938 8.082031 265.1875 8.15625 265.53125 8.277344 C 264.347656 7.863281 265.714844 8.417969 266.183594 8.53125 C 266.707031 8.65625 267.230469 8.78125 267.75 8.90625 C 270.214844 9.5 272.683594 10.09375 275.148438 10.6875 C 284.257812 12.882812 293.363281 15.074219 302.46875 17.265625 C 314.246094 20.101562 326.019531 22.9375 337.796875 25.773438 C 348.765625 28.414062 359.726562 31.054688 370.695312 33.695312 C 377.378906 35.304688 384.058594 36.910156 390.742188 38.523438 C 391.335938 38.664062 391.933594 38.808594 392.523438 38.949219 C 392.625 38.972656 392.71875 38.996094 392.820312 39.023438 C 392.65625 38.980469 391.722656 38.503906 392.339844 38.894531 C 391.511719 38.367188 392.097656 38.71875 392.3125 38.9375 C 392.914062 39.550781 391.835938 38.210938 392.28125 38.9375 C 392.734375 39.664062 392 38.085938 392.28125 38.890625 C 392.375 39.15625 392.46875 39.964844 392.332031 38.804688 C 392.367188 39.050781 392.351562 39.296875 392.339844 39.539062 C 392.398438 38.394531 392.324219 39.375 392.203125 39.722656 C 392.613281 38.542969 393.355469 38.085938 392.742188 38.742188 C 392.496094 39.003906 392.25 39.265625 392 39.527344 C 391.082031 40.503906 390.164062 41.484375 389.246094 42.460938 C 382.03125 50.136719 374.820312 57.808594 367.613281 65.480469 C 360.34375 73.214844 353.078125 80.949219 345.808594 88.679688 C 344.492188 90.085938 343.167969 91.492188 341.847656 92.898438 C 341.453125 93.320312 341.25 93.691406 340.96875 94.140625 C 341.492188 93.308594 341.140625 93.898438 340.925781 94.109375 C 340.308594 94.714844 341.652344 93.636719 340.929688 94.082031 C 340.199219 94.535156 341.78125 93.800781 340.972656 94.082031 C 340.703125 94.171875 339.894531 94.265625 341.058594 94.132812 C 340.816406 94.160156 340.566406 94.148438 340.324219 94.136719 C 341.46875 94.195312 340.488281 94.125 340.144531 94.003906 C 341.328125 94.417969 339.964844 93.859375 339.496094 93.75 C 338.972656 93.621094 338.449219 93.496094 337.925781 93.371094 C 331.457031 91.8125 324.988281 90.253906 318.515625 88.699219 C 307.640625 86.078125 296.769531 83.460938 285.894531 80.839844 C 274.089844 78 262.28125 75.15625 250.476562 72.3125 C 241.21875 70.082031 231.957031 67.855469 222.699219 65.625 C 220.113281 65 217.523438 64.378906 214.933594 63.753906 C 214.339844 63.609375 213.746094 63.46875 213.152344 63.324219 C 213.054688 63.300781 212.957031 63.277344 212.859375 63.253906 C 213.023438 63.292969 213.957031 63.773438 213.339844 63.382812 C 214.167969 63.90625 213.578125 63.554688 213.367188 63.339844 C 212.761719 62.726562 213.839844 64.066406 213.394531 63.34375 C 212.945312 62.613281 213.671875 64.195312 213.394531 63.386719 C 213.300781 63.121094 213.207031 62.3125 213.34375 63.472656 C 213.3125 63.226562 213.324219 62.980469 213.339844 62.738281 C 213.28125 63.882812 213.355469 62.902344 213.472656 62.558594 C 213.414062 62.710938 213.351562 62.863281 213.289062 63.019531 C 214.214844 61.101562 213.832031 58.808594 211.886719 57.671875 C 210.160156 56.660156 207.464844 57.15625 206.539062 59.074219 Z M 206.539062 59.074219 " fill-opacity="1" fill-rule="nonzero"/></g><g clip-path="url(#bd869ac4eb)"><path fill="#231f20" d="M 205.550781 63.019531 C 205.097656 62.082031 205.445312 62.78125 205.519531 63.042969 C 205.757812 63.890625 205.46875 62.113281 205.515625 62.984375 C 205.53125 63.28125 205.371094 64.050781 205.566406 62.917969 C 205.523438 63.15625 205.445312 63.390625 205.367188 63.617188 C 205.714844 62.617188 205.476562 63.292969 205.316406 63.550781 C 205.84375 62.707031 205.523438 63.289062 205.296875 63.519531 C 204.691406 64.136719 206.03125 63.050781 205.285156 63.519531 C 205.75 63.222656 206.238281 63.195312 205.984375 63.253906 C 205.894531 63.277344 205.800781 63.300781 205.707031 63.320312 C 205.125 63.460938 204.539062 63.601562 203.957031 63.742188 C 201.386719 64.359375 198.816406 64.980469 196.246094 65.601562 C 187.003906 67.824219 177.769531 70.050781 168.53125 72.273438 C 156.726562 75.113281 144.929688 77.957031 133.125 80.796875 C 122.238281 83.417969 111.351562 86.042969 100.460938 88.664062 C 93.960938 90.230469 87.460938 91.792969 80.960938 93.359375 C 80.429688 93.488281 79.894531 93.617188 79.363281 93.746094 C 78.941406 93.847656 78.773438 93.925781 78.238281 94.183594 C 79.171875 93.734375 78.472656 94.082031 78.214844 94.15625 C 77.367188 94.394531 79.140625 94.105469 78.269531 94.148438 C 77.976562 94.164062 77.203125 94.007812 78.339844 94.203125 C 78.097656 94.164062 77.867188 94.082031 77.640625 94.003906 C 78.640625 94.351562 77.960938 94.117188 77.707031 93.957031 C 78.550781 94.476562 77.964844 94.160156 77.738281 93.9375 C 77.121094 93.332031 78.207031 94.664062 77.734375 93.921875 C 77.414062 93.414062 77.773438 93.730469 76.996094 92.902344 C 75.695312 91.519531 74.402344 90.140625 73.101562 88.757812 C 65.851562 81.042969 58.605469 73.332031 51.355469 65.617188 C 44.125 57.925781 36.898438 50.230469 29.667969 42.539062 C 28.394531 41.179688 27.117188 39.824219 25.84375 38.46875 C 26.996094 39.691406 26.746094 40.15625 26.484375 39.238281 C 26.242188 38.390625 26.535156 40.164062 26.492188 39.292969 C 26.472656 39 26.632812 38.226562 26.4375 39.363281 C 26.476562 39.125 26.558594 38.890625 26.636719 38.664062 C 26.289062 39.660156 26.523438 38.988281 26.683594 38.730469 C 26.160156 39.574219 26.476562 38.988281 26.699219 38.761719 C 27.308594 38.144531 25.972656 39.230469 26.71875 38.757812 C 26.25 39.054688 25.765625 39.085938 26.019531 39.027344 C 26.109375 39.003906 26.203125 38.980469 26.296875 38.960938 C 26.878906 38.816406 27.460938 38.679688 28.046875 38.535156 C 34.699219 36.9375 41.351562 35.332031 48.003906 33.734375 C 58.957031 31.09375 69.910156 28.457031 80.867188 25.820312 C 92.644531 22.984375 104.425781 20.148438 116.203125 17.3125 C 125.332031 15.113281 134.460938 12.914062 143.589844 10.714844 C 146.078125 10.117188 148.558594 9.519531 151.042969 8.921875 C 151.574219 8.792969 152.109375 8.667969 152.640625 8.539062 C 153.0625 8.4375 153.230469 8.355469 153.765625 8.097656 C 152.832031 8.550781 153.53125 8.199219 153.789062 8.128906 C 154.636719 7.886719 152.859375 8.179688 153.730469 8.132812 C 154.027344 8.117188 154.796875 8.273438 153.660156 8.078125 C 153.90625 8.121094 154.136719 8.203125 154.363281 8.28125 C 153.367188 7.933594 154.042969 8.171875 154.300781 8.328125 C 153.453125 7.804688 154.039062 8.121094 154.261719 8.347656 C 154.882812 8.953125 153.796875 7.617188 154.269531 8.359375 C 154.589844 8.871094 154.226562 8.554688 155.007812 9.382812 C 159.464844 14.125 163.925781 18.871094 168.382812 23.613281 C 176.554688 32.308594 184.726562 41.003906 192.894531 49.703125 C 197.320312 54.40625 201.742188 59.109375 206.15625 63.8125 C 206.15625 63.816406 206.15625 63.816406 206.15625 63.816406 C 207.621094 65.367188 210.21875 65.285156 211.6875 63.816406 C 213.230469 62.273438 213.148438 59.839844 211.6875 58.285156 C 207.304688 53.621094 202.925781 48.957031 198.542969 44.292969 C 190.367188 35.597656 182.195312 26.902344 174.023438 18.207031 C 169.527344 13.421875 165.03125 8.640625 160.542969 3.855469 C 161.917969 5.320312 160.148438 3.230469 160.121094 3.199219 C 159.648438 2.617188 159.0625 2.148438 158.449219 1.71875 C 157.125 0.792969 155.570312 0.414062 153.976562 0.316406 C 153.222656 0.273438 152.441406 0.425781 151.710938 0.589844 C 151.464844 0.644531 151.226562 0.742188 150.988281 0.839844 C 150.675781 0.972656 150.367188 1.101562 150.058594 1.234375 C 150.765625 0.988281 151 0.894531 150.753906 0.953125 C 150.730469 0.960938 150.703125 0.964844 150.675781 0.972656 C 150.242188 1.078125 149.804688 1.179688 149.367188 1.289062 C 147.042969 1.847656 144.714844 2.40625 142.390625 2.96875 C 133.460938 5.117188 124.535156 7.265625 115.609375 9.414062 C 103.871094 12.242188 92.136719 15.066406 80.402344 17.894531 C 69.335938 20.554688 58.269531 23.222656 47.207031 25.886719 C 40.285156 27.550781 33.359375 29.21875 26.441406 30.886719 C 25.765625 31.046875 25.09375 31.210938 24.417969 31.371094 C 22.503906 31.835938 21.042969 33.195312 19.933594 34.785156 C 18 37.558594 18.300781 41.855469 20.59375 44.292969 C 21.242188 44.988281 21.898438 45.679688 22.546875 46.375 C 29.25 53.507812 35.953125 60.640625 42.65625 67.769531 C 50.308594 75.917969 57.964844 84.0625 65.621094 92.207031 C 67.46875 94.179688 69.320312 96.148438 71.171875 98.117188 C 71.273438 98.222656 71.371094 98.328125 71.46875 98.433594 C 71.058594 97.996094 70.8125 97.59375 71.121094 98.089844 C 71.394531 98.511719 71.726562 98.890625 72.039062 99.28125 C 72.5 99.851562 73.175781 100.304688 73.761719 100.710938 C 75.027344 101.59375 76.753906 101.964844 78.269531 101.972656 C 79.027344 101.972656 79.8125 101.835938 80.539062 101.628906 C 80.988281 101.5 81.578125 101.230469 81.949219 101.050781 C 81.191406 101.417969 81.007812 101.390625 81.253906 101.332031 C 81.28125 101.324219 81.308594 101.320312 81.335938 101.3125 C 81.492188 101.273438 81.652344 101.234375 81.8125 101.199219 C 87.253906 99.886719 92.699219 98.578125 98.140625 97.269531 C 108.542969 94.761719 118.949219 92.253906 129.351562 89.75 C 141.242188 86.886719 153.132812 84.023438 165.019531 81.160156 C 174.917969 78.777344 184.820312 76.394531 194.71875 74.007812 C 199.152344 72.941406 203.589844 71.875 208.023438 70.808594 C 209.636719 70.417969 211.011719 69.015625 211.929688 67.699219 C 213.742188 65.101562 213.632812 61.832031 212.300781 59.078125 C 211.375 57.160156 208.679688 56.664062 206.953125 57.675781 C 205.007812 58.808594 204.625 61.101562 205.550781 63.019531 Z M 205.550781 63.019531 " fill-opacity="1" fill-rule="nonzero"/></g><g clip-path="url(#b422dedf3d)"><path fill="#231f20" d="M 205.503906 129.480469 C 205.503906 132.132812 205.503906 134.78125 205.503906 137.433594 C 205.503906 144.359375 205.503906 151.277344 205.503906 158.199219 C 205.503906 167.839844 205.503906 177.476562 205.503906 187.117188 C 205.503906 197.917969 205.503906 208.726562 205.503906 219.535156 C 205.503906 229.949219 205.503906 240.375 205.503906 250.796875 C 205.503906 259.285156 205.503906 267.773438 205.503906 276.257812 C 205.503906 281.257812 205.503906 286.257812 205.503906 291.261719 C 205.503906 291.96875 205.503906 292.675781 205.503906 293.390625 C 205.503906 295.519531 207.285156 297.296875 209.417969 297.296875 C 211.546875 297.296875 213.324219 295.519531 213.324219 293.390625 C 213.324219 290.734375 213.324219 288.085938 213.324219 285.4375 C 213.324219 278.511719 213.324219 271.589844 213.324219 264.671875 C 213.324219 255.03125 213.324219 245.394531 213.324219 235.753906 C 213.324219 224.953125 213.324219 214.144531 213.324219 203.335938 C 213.324219 192.921875 213.324219 182.496094 213.324219 172.074219 C 213.324219 163.585938 213.324219 155.097656 213.324219 146.613281 C 213.324219 141.613281 213.324219 136.605469 213.324219 131.609375 C 213.324219 130.898438 213.324219 130.1875 213.324219 129.480469 C 213.324219 127.351562 211.546875 125.570312 209.417969 125.570312 C 207.285156 125.570312 205.503906 127.347656 205.503906 129.480469 Z M 205.503906 129.480469 " fill-opacity="1" fill-rule="nonzero"/></g></svg>