<svg xmlns="http://www.w3.org/2000/svg" xmlns:xlink="http://www.w3.org/1999/xlink" width="559" zoomAndPan="magnify" viewBox="0 0 419.25 297.75" height="397" preserveAspectRatio="xMidYMid meet" version="1.0"><defs><clipPath id="9d71890eb0"><path d="M 0 0.140625 L 418.5 0.140625 L 418.5 297.359375 L 0 297.359375 Z M 0 0.140625 " clip-rule="nonzero"/></clipPath><clipPath id="11cfc53f22"><path d="M 258.269531 171.375 L 365 171.375 L 365 241 L 258.269531 241 Z M 258.269531 171.375 " clip-rule="nonzero"/></clipPath><clipPath id="518b59d52a"><path d="M 222 130 L 388.847656 130 L 388.847656 296.953125 L 222 296.953125 Z M 222 130 " clip-rule="nonzero"/></clipPath><clipPath id="6f00051449"><path d="M 51.203125 4.226562 L 369 4.226562 L 369 262 L 51.203125 262 Z M 51.203125 4.226562 " clip-rule="nonzero"/></clipPath><clipPath id="02b2039b94"><path d="M 228.214844 155.554688 L 383.1875 155.554688 L 383.1875 256.621094 L 228.214844 256.621094 Z M 228.214844 155.554688 " clip-rule="nonzero"/></clipPath></defs><g clip-path="url(#9d71890eb0)"><path fill="#ffffff" d="M 0 0.140625 L 418.5 0.140625 L 418.5 297.359375 L 0 297.359375 Z M 0 0.140625 " fill-opacity="1" fill-rule="nonzero"/><path fill="#ffffff" d="M 0 0.140625 L 418.5 0.140625 L 418.5 297.359375 L 0 297.359375 Z M 0 0.140625 " fill-opacity="1" fill-rule="nonzero"/></g><path fill="#ffffff" d="M 308.789062 212.183594 L 306.738281 212.183594 C 306.148438 212.183594 305.613281 211.941406 305.222656 211.550781 L 305.160156 211.492188 C 304.808594 211.113281 304.589844 210.601562 304.589844 210.039062 C 304.589844 209.261719 303.960938 208.628906 303.183594 208.628906 C 302.40625 208.628906 301.777344 209.257812 301.777344 210.039062 C 301.777344 211.351562 302.296875 212.554688 303.144531 213.449219 L 303.234375 213.542969 C 304.046875 214.355469 305.144531 214.886719 306.355469 214.980469 L 306.355469 216.574219 C 306.355469 217.347656 306.984375 217.980469 307.765625 217.980469 C 308.542969 217.980469 309.171875 217.351562 309.171875 216.574219 L 309.171875 214.980469 C 310.386719 214.886719 311.480469 214.355469 312.292969 213.542969 L 312.292969 213.539062 C 313.191406 212.640625 313.75 211.402344 313.75 210.039062 C 313.75 208.675781 313.191406 207.4375 312.292969 206.539062 L 312.289062 206.53125 C 311.390625 205.632812 310.148438 205.078125 308.789062 205.078125 L 306.738281 205.078125 C 306.148438 205.078125 305.613281 204.832031 305.222656 204.445312 L 305.160156 204.386719 C 304.808594 204.003906 304.589844 203.492188 304.589844 202.929688 C 304.589844 202.339844 304.832031 201.800781 305.21875 201.414062 L 305.222656 201.414062 C 305.613281 201.027344 306.148438 200.785156 306.738281 200.785156 L 308.789062 200.785156 C 309.378906 200.785156 309.914062 201.027344 310.304688 201.414062 C 310.691406 201.800781 310.933594 202.339844 310.933594 202.929688 C 310.933594 203.707031 311.5625 204.339844 312.34375 204.339844 C 313.121094 204.339844 313.75 203.707031 313.75 202.929688 C 313.75 201.566406 313.191406 200.328125 312.292969 199.429688 L 312.289062 199.425781 C 311.476562 198.609375 310.382812 198.082031 309.171875 197.988281 L 309.171875 196.394531 C 309.171875 195.617188 308.542969 194.988281 307.765625 194.988281 C 306.984375 194.988281 306.355469 195.617188 306.355469 196.394531 L 306.355469 197.988281 C 305.144531 198.082031 304.046875 198.609375 303.238281 199.425781 C 302.335938 200.328125 301.777344 201.566406 301.777344 202.925781 C 301.777344 204.242188 302.296875 205.445312 303.144531 206.335938 L 303.234375 206.433594 C 304.132812 207.332031 305.375 207.890625 306.742188 207.890625 L 308.789062 207.890625 C 309.382812 207.890625 309.917969 208.132812 310.308594 208.519531 C 310.695312 208.90625 310.9375 209.445312 310.9375 210.035156 C 310.9375 210.628906 310.695312 211.164062 310.304688 211.550781 C 309.914062 211.941406 309.378906 212.183594 308.789062 212.183594 Z M 308.789062 212.183594 " fill-opacity="1" fill-rule="nonzero"/><path fill="#ffffff" d="M 307.765625 224.332031 C 312.695312 224.332031 317.15625 222.335938 320.386719 219.105469 C 323.617188 215.875 325.613281 211.414062 325.613281 206.484375 C 325.613281 201.554688 323.613281 197.089844 320.386719 193.863281 C 317.15625 190.632812 312.695312 188.632812 307.765625 188.632812 C 302.835938 188.632812 298.371094 190.632812 295.144531 193.863281 C 291.910156 197.09375 289.914062 201.558594 289.914062 206.484375 C 289.914062 211.414062 291.914062 215.875 295.144531 219.105469 C 298.371094 222.335938 302.835938 224.332031 307.765625 224.332031 Z M 297.398438 196.117188 C 300.050781 193.464844 303.71875 191.824219 307.765625 191.824219 C 311.8125 191.824219 315.476562 193.46875 318.128906 196.117188 C 320.78125 198.769531 322.421875 202.4375 322.421875 206.484375 C 322.421875 210.53125 320.78125 214.199219 318.128906 216.851562 C 315.476562 219.503906 311.8125 221.140625 307.765625 221.140625 C 303.71875 221.140625 300.050781 219.5 297.398438 216.851562 C 294.746094 214.199219 293.105469 210.53125 293.105469 206.484375 C 293.101562 202.4375 294.746094 198.769531 297.398438 196.117188 Z M 297.398438 196.117188 " fill-opacity="1" fill-rule="nonzero"/><g clip-path="url(#11cfc53f22)"><path fill="#ffffff" d="M 364.90625 219.664062 L 357.238281 182.554688 L 357.238281 182.546875 C 357.238281 182.320312 357.1875 182.101562 357.101562 181.90625 L 355.214844 172.777344 C 355.039062 171.917969 354.199219 171.363281 353.339844 171.539062 L 307.792969 180.949219 L 259.886719 180.949219 C 259.007812 180.949219 258.292969 181.664062 258.292969 182.546875 L 258.292969 230.421875 C 258.292969 231.304688 259.007812 232.019531 259.886719 232.019531 L 266.429688 232.019531 L 268.015625 239.675781 C 268.191406 240.539062 269.03125 241.09375 269.890625 240.917969 L 312.957031 232.019531 L 355.640625 232.019531 C 356.519531 232.019531 357.234375 231.304688 357.234375 230.421875 L 357.234375 222.871094 L 363.660156 221.542969 C 364.523438 221.367188 365.082031 220.527344 364.90625 219.664062 Z M 352.425781 174.976562 L 353.660156 180.949219 L 323.503906 180.949219 Z M 270.808594 237.480469 L 269.679688 232.019531 L 297.25 232.019531 Z M 354.046875 228.828125 L 261.484375 228.828125 L 261.484375 184.140625 L 354.046875 184.140625 Z M 357.238281 219.621094 L 357.238281 198.265625 L 361.46875 218.75 Z M 357.238281 219.621094 " fill-opacity="1" fill-rule="nonzero"/></g><path fill="#ffffff" d="M 268.085938 199.476562 C 268.96875 199.476562 269.679688 198.761719 269.679688 197.882812 L 269.679688 191.90625 L 275.660156 191.90625 C 276.539062 191.90625 277.253906 191.191406 277.253906 190.3125 C 277.253906 189.433594 276.539062 188.71875 275.660156 188.71875 L 268.085938 188.71875 C 267.207031 188.71875 266.492188 189.433594 266.492188 190.3125 L 266.492188 197.882812 C 266.488281 198.761719 267.203125 199.476562 268.085938 199.476562 Z M 268.085938 199.476562 " fill-opacity="1" fill-rule="nonzero"/><path fill="#ffffff" d="M 275.660156 221.0625 L 269.679688 221.0625 L 269.679688 215.085938 C 269.679688 214.207031 268.96875 213.492188 268.085938 213.492188 C 267.207031 213.492188 266.492188 214.207031 266.492188 215.085938 L 266.492188 222.65625 C 266.492188 223.535156 267.207031 224.25 268.085938 224.25 L 275.660156 224.25 C 276.539062 224.25 277.253906 223.535156 277.253906 222.65625 C 277.253906 221.777344 276.539062 221.0625 275.660156 221.0625 Z M 275.660156 221.0625 " fill-opacity="1" fill-rule="nonzero"/><path fill="#ffffff" d="M 339.867188 191.90625 L 345.84375 191.90625 L 345.84375 197.882812 C 345.84375 198.761719 346.558594 199.476562 347.4375 199.476562 C 348.320312 199.476562 349.03125 198.761719 349.03125 197.882812 L 349.03125 190.3125 C 349.03125 189.433594 348.320312 188.71875 347.4375 188.71875 L 339.867188 188.71875 C 338.988281 188.71875 338.273438 189.433594 338.273438 190.3125 C 338.273438 191.191406 338.988281 191.90625 339.867188 191.90625 Z M 339.867188 191.90625 " fill-opacity="1" fill-rule="nonzero"/><path fill="#ffffff" d="M 339.867188 224.253906 L 347.4375 224.253906 C 348.320312 224.253906 349.03125 223.539062 349.03125 222.660156 L 349.03125 215.085938 C 349.03125 214.207031 348.320312 213.492188 347.4375 213.492188 C 346.558594 213.492188 345.84375 214.207031 345.84375 215.085938 L 345.84375 221.066406 L 339.867188 221.066406 C 338.988281 221.066406 338.273438 221.78125 338.273438 222.660156 C 338.273438 223.539062 338.988281 224.253906 339.867188 224.253906 Z M 339.867188 224.253906 " fill-opacity="1" fill-rule="nonzero"/><path fill="#000000" d="M 229.867188 270.207031 C 232.097656 273.183594 230.027344 277.421875 226.308594 277.421875 L 68.253906 277.421875 C 60.820312 277.421875 54.792969 271.394531 54.792969 263.960938 L 54.792969 244.386719 L 58.570312 253.933594 L 68.253906 257.847656 L 219.355469 257.847656 C 220.953125 257.847656 222.441406 258.6875 223.230469 260.078125 C 225.230469 263.601562 227.449219 266.984375 229.867188 270.207031 Z M 284.09375 121.335938 C 291.003906 119.722656 298.199219 118.867188 305.59375 118.867188 C 310.300781 118.867188 314.925781 119.214844 319.449219 119.878906 C 322.144531 120.277344 324.554688 118.167969 324.554688 115.441406 L 324.554688 98.953125 C 324.554688 96.472656 322.546875 94.464844 320.066406 94.464844 L 283.070312 94.464844 C 280.59375 94.464844 278.585938 96.472656 278.585938 98.953125 L 278.585938 116.976562 C 278.585938 119.867188 281.277344 121.996094 284.09375 121.335938 Z M 233.105469 145.945312 L 217.054688 145.945312 C 214.574219 145.945312 212.566406 147.953125 212.566406 150.433594 L 212.566406 177.378906 C 212.566406 177.402344 212.566406 177.425781 212.566406 177.445312 C 212.609375 180.332031 216.671875 180.976562 217.75 178.300781 C 221.894531 167.996094 227.804688 158.582031 235.101562 150.433594 C 236.65625 148.699219 235.4375 145.945312 233.105469 145.945312 Z M 254.050781 94.464844 L 217.054688 94.464844 C 214.574219 94.464844 212.566406 96.472656 212.566406 98.953125 L 212.566406 125.898438 C 212.566406 128.375 214.574219 130.386719 217.054688 130.386719 L 254.050781 130.386719 C 256.527344 130.386719 258.535156 128.375 258.535156 125.898438 L 258.535156 98.953125 C 258.535156 96.472656 256.527344 94.464844 254.050781 94.464844 Z M 85.015625 181.867188 L 122.011719 181.867188 C 124.492188 181.867188 126.5 179.855469 126.5 177.378906 L 126.5 150.433594 C 126.5 147.953125 124.492188 145.945312 122.011719 145.945312 L 85.015625 145.945312 C 82.539062 145.945312 80.53125 147.953125 80.53125 150.433594 L 80.53125 177.378906 C 80.53125 179.855469 82.539062 181.867188 85.015625 181.867188 Z M 151.035156 181.867188 L 188.03125 181.867188 C 190.507812 181.867188 192.519531 179.855469 192.519531 177.378906 L 192.519531 150.433594 C 192.519531 147.953125 190.507812 145.945312 188.03125 145.945312 L 151.035156 145.945312 C 148.554688 145.945312 146.546875 147.953125 146.546875 150.433594 L 146.546875 177.378906 C 146.546875 179.855469 148.554688 181.867188 151.035156 181.867188 Z M 324.554688 177.378906 L 324.554688 150.433594 C 324.554688 147.953125 322.546875 145.945312 320.066406 145.945312 L 283.070312 145.945312 C 280.59375 145.945312 278.585938 147.953125 278.585938 150.433594 L 278.585938 177.378906 C 278.585938 179.855469 280.59375 181.867188 283.070312 181.867188 L 320.066406 181.867188 C 322.546875 181.867188 324.554688 179.855469 324.554688 177.378906 Z M 85.015625 233.347656 L 122.011719 233.347656 C 124.492188 233.347656 126.5 231.339844 126.5 228.859375 L 126.5 201.914062 C 126.5 199.4375 124.492188 197.425781 122.011719 197.425781 L 85.015625 197.425781 C 82.539062 197.425781 80.53125 199.4375 80.53125 201.914062 L 80.53125 228.859375 C 80.53125 231.339844 82.539062 233.347656 85.015625 233.347656 Z M 305.59375 213.507812 L 305.59375 256.703125 L 348.785156 256.703125 L 348.785156 213.507812 Z M 305.59375 213.507812 " fill-opacity="1" fill-rule="nonzero"/><g clip-path="url(#518b59d52a)"><path fill="#000000" d="M 389.019531 213.507812 C 389.019531 214.875 388.984375 216.238281 388.917969 217.601562 C 388.851562 218.964844 388.75 220.328125 388.617188 221.6875 C 388.484375 223.046875 388.316406 224.398438 388.113281 225.75 C 387.914062 227.101562 387.679688 228.445312 387.414062 229.785156 C 387.148438 231.125 386.847656 232.457031 386.519531 233.78125 C 386.1875 235.105469 385.820312 236.417969 385.425781 237.726562 C 385.03125 239.03125 384.601562 240.328125 384.140625 241.613281 C 383.679688 242.898438 383.191406 244.171875 382.667969 245.433594 C 382.144531 246.695312 381.59375 247.945312 381.007812 249.179688 C 380.425781 250.414062 379.8125 251.632812 379.167969 252.835938 C 378.523438 254.039062 377.851562 255.226562 377.148438 256.398438 C 376.445312 257.570312 375.71875 258.722656 374.957031 259.859375 C 374.199219 260.992188 373.414062 262.109375 372.601562 263.207031 C 371.789062 264.300781 370.949219 265.378906 370.082031 266.433594 C 369.214844 267.488281 368.324219 268.523438 367.40625 269.535156 C 366.488281 270.546875 365.550781 271.535156 364.582031 272.5 C 363.617188 273.464844 362.628906 274.40625 361.617188 275.324219 C 360.605469 276.238281 359.574219 277.132812 358.515625 277.996094 C 357.460938 278.863281 356.386719 279.703125 355.289062 280.515625 C 354.191406 281.328125 353.078125 282.117188 351.941406 282.875 C 350.808594 283.632812 349.652344 284.363281 348.484375 285.066406 C 347.3125 285.765625 346.125 286.441406 344.917969 287.082031 C 343.714844 287.726562 342.496094 288.339844 341.261719 288.925781 C 340.027344 289.507812 338.78125 290.0625 337.519531 290.582031 C 336.257812 291.105469 334.984375 291.597656 333.699219 292.058594 C 332.414062 292.515625 331.117188 292.945312 329.8125 293.339844 C 328.503906 293.738281 327.1875 294.101562 325.863281 294.433594 C 324.539062 294.765625 323.207031 295.0625 321.867188 295.332031 C 320.53125 295.597656 319.183594 295.832031 317.835938 296.03125 C 316.484375 296.230469 315.128906 296.398438 313.769531 296.53125 C 312.414062 296.664062 311.050781 296.765625 309.6875 296.832031 C 308.324219 296.898438 306.960938 296.933594 305.59375 296.933594 C 304.230469 296.933594 302.863281 296.898438 301.5 296.832031 C 300.136719 296.765625 298.777344 296.664062 297.417969 296.53125 C 296.058594 296.398438 294.703125 296.230469 293.351562 296.03125 C 292.003906 295.832031 290.65625 295.597656 289.320312 295.332031 C 287.980469 295.0625 286.648438 294.765625 285.324219 294.433594 C 284 294.101562 282.683594 293.738281 281.378906 293.339844 C 280.070312 292.945312 278.773438 292.515625 277.488281 292.058594 C 276.203125 291.597656 274.929688 291.105469 273.667969 290.582031 C 272.40625 290.0625 271.160156 289.507812 269.925781 288.925781 C 268.691406 288.339844 267.472656 287.726562 266.269531 287.082031 C 265.0625 286.441406 263.875 285.765625 262.707031 285.066406 C 261.535156 284.363281 260.382812 283.632812 259.246094 282.875 C 258.109375 282.117188 256.996094 281.328125 255.898438 280.515625 C 254.800781 279.703125 253.726562 278.863281 252.671875 277.996094 C 251.613281 277.132812 250.582031 276.238281 249.570312 275.324219 C 248.558594 274.40625 247.570312 273.464844 246.605469 272.5 C 245.640625 271.535156 244.699219 270.546875 243.78125 269.535156 C 242.863281 268.523438 241.972656 267.488281 241.105469 266.433594 C 240.238281 265.378906 239.398438 264.300781 238.585938 263.207031 C 237.773438 262.109375 236.988281 260.992188 236.230469 259.859375 C 235.472656 258.722656 234.742188 257.570312 234.039062 256.398438 C 233.335938 255.226562 232.664062 254.039062 232.019531 252.835938 C 231.375 251.632812 230.761719 250.414062 230.179688 249.179688 C 229.59375 247.945312 229.042969 246.695312 228.519531 245.433594 C 227.996094 244.171875 227.507812 242.898438 227.046875 241.613281 C 226.585938 240.328125 226.160156 239.03125 225.761719 237.726562 C 225.367188 236.417969 225 235.105469 224.667969 233.78125 C 224.339844 232.457031 224.039062 231.125 223.773438 229.785156 C 223.507812 228.445312 223.273438 227.101562 223.074219 225.75 C 222.871094 224.398438 222.707031 223.046875 222.570312 221.6875 C 222.4375 220.328125 222.335938 218.964844 222.269531 217.601562 C 222.203125 216.238281 222.167969 214.875 222.167969 213.507812 C 222.167969 212.144531 222.203125 210.78125 222.269531 209.417969 C 222.335938 208.050781 222.4375 206.691406 222.570312 205.332031 C 222.707031 203.972656 222.871094 202.621094 223.074219 201.269531 C 223.273438 199.917969 223.507812 198.574219 223.773438 197.234375 C 224.039062 195.894531 224.339844 194.5625 224.667969 193.238281 C 225 191.914062 225.367188 190.597656 225.761719 189.292969 C 226.160156 187.988281 226.585938 186.691406 227.046875 185.40625 C 227.507812 184.121094 227.996094 182.847656 228.519531 181.585938 C 229.042969 180.324219 229.59375 179.074219 230.179688 177.839844 C 230.761719 176.605469 231.375 175.386719 232.019531 174.183594 C 232.664062 172.980469 233.335938 171.792969 234.039062 170.621094 C 234.742188 169.449219 235.472656 168.296875 236.230469 167.160156 C 236.988281 166.027344 237.773438 164.910156 238.585938 163.8125 C 239.398438 162.71875 240.238281 161.640625 241.105469 160.585938 C 241.972656 159.53125 242.863281 158.496094 243.78125 157.484375 C 244.699219 156.472656 245.640625 155.484375 246.605469 154.519531 C 247.570312 153.554688 248.558594 152.613281 249.570312 151.695312 C 250.582031 150.78125 251.613281 149.886719 252.671875 149.023438 C 253.726562 148.15625 254.800781 147.316406 255.898438 146.503906 C 256.996094 145.691406 258.109375 144.902344 259.246094 144.144531 C 260.382812 143.386719 261.535156 142.65625 262.707031 141.953125 C 263.875 141.253906 265.0625 140.578125 266.269531 139.9375 C 267.472656 139.292969 268.691406 138.679688 269.925781 138.09375 C 271.160156 137.511719 272.40625 136.957031 273.667969 136.4375 C 274.929688 135.914062 276.203125 135.421875 277.488281 134.960938 C 278.773438 134.503906 280.070312 134.074219 281.378906 133.679688 C 282.683594 133.28125 284 132.917969 285.324219 132.585938 C 286.648438 132.253906 287.980469 131.953125 289.320312 131.6875 C 290.65625 131.421875 292.003906 131.1875 293.351562 130.988281 C 294.703125 130.789062 296.058594 130.621094 297.417969 130.488281 C 298.777344 130.351562 300.136719 130.253906 301.5 130.1875 C 302.863281 130.117188 304.230469 130.085938 305.59375 130.085938 C 306.960938 130.085938 308.324219 130.117188 309.6875 130.1875 C 311.050781 130.253906 312.414062 130.351562 313.769531 130.488281 C 315.128906 130.621094 316.484375 130.789062 317.835938 130.988281 C 319.183594 131.1875 320.53125 131.421875 321.867188 131.6875 C 323.207031 131.953125 324.539062 132.253906 325.863281 132.585938 C 327.1875 132.917969 328.503906 133.28125 329.8125 133.679688 C 331.117188 134.074219 332.414062 134.503906 333.699219 134.960938 C 334.984375 135.421875 336.257812 135.914062 337.519531 136.4375 C 338.78125 136.957031 340.027344 137.511719 341.261719 138.09375 C 342.496094 138.679688 343.714844 139.292969 344.917969 139.9375 C 346.125 140.578125 347.3125 141.253906 348.484375 141.953125 C 349.652344 142.65625 350.808594 143.386719 351.941406 144.144531 C 353.078125 144.902344 354.191406 145.691406 355.289062 146.503906 C 356.386719 147.316406 357.460938 148.15625 358.519531 149.023438 C 359.574219 149.886719 360.605469 150.78125 361.617188 151.695312 C 362.628906 152.613281 363.617188 153.554688 364.582031 154.519531 C 365.550781 155.484375 366.488281 156.472656 367.40625 157.484375 C 368.324219 158.496094 369.214844 159.53125 370.082031 160.585938 C 370.949219 161.640625 371.789062 162.71875 372.601562 163.8125 C 373.414062 164.910156 374.199219 166.027344 374.957031 167.160156 C 375.71875 168.296875 376.445312 169.449219 377.148438 170.621094 C 377.851562 171.792969 378.523438 172.980469 379.167969 174.183594 C 379.8125 175.386719 380.425781 176.605469 381.007812 177.839844 C 381.59375 179.074219 382.144531 180.324219 382.667969 181.585938 C 383.191406 182.847656 383.679688 184.121094 384.140625 185.40625 C 384.601562 186.691406 385.03125 187.988281 385.425781 189.292969 C 385.820312 190.597656 386.1875 191.914062 386.519531 193.238281 C 386.847656 194.5625 387.148438 195.894531 387.414062 197.234375 C 387.679688 198.574219 387.914062 199.917969 388.113281 201.269531 C 388.316406 202.621094 388.484375 203.972656 388.617188 205.332031 C 388.75 206.691406 388.851562 208.050781 388.917969 209.417969 C 388.984375 210.78125 389.019531 212.144531 389.019531 213.507812 Z M 389.019531 213.507812 " fill-opacity="1" fill-rule="nonzero"/></g><g clip-path="url(#6f00051449)"><path fill="#000000" d="M 222.003906 254.257812 L 68.253906 254.257812 C 62.808594 254.257812 58.382812 249.832031 58.382812 244.386719 L 58.382812 73.554688 L 345.195312 73.554688 L 345.195312 129.3125 C 345.195312 131.292969 346.804688 132.902344 348.785156 132.902344 C 350.769531 132.902344 352.375 131.292969 352.375 129.3125 L 352.375 42.210938 C 352.375 32.808594 344.726562 25.160156 335.324219 25.160156 L 328.144531 25.160156 L 328.144531 18.171875 C 328.144531 10.664062 322.035156 4.554688 314.527344 4.554688 C 307.015625 4.554688 300.90625 10.664062 300.90625 18.171875 L 300.90625 25.160156 L 271.777344 25.160156 L 271.777344 18.171875 C 271.777344 10.664062 265.667969 4.554688 258.15625 4.554688 C 250.648438 4.554688 244.539062 10.664062 244.539062 18.171875 L 244.539062 25.160156 L 215.40625 25.160156 L 215.40625 18.171875 C 215.40625 10.664062 209.296875 4.554688 201.789062 4.554688 C 194.28125 4.554688 188.171875 10.664062 188.171875 18.171875 L 188.171875 25.160156 L 159.039062 25.160156 L 159.039062 18.171875 C 159.039062 10.664062 152.929688 4.554688 145.421875 4.554688 C 137.910156 4.554688 131.800781 10.664062 131.800781 18.171875 L 131.800781 25.160156 L 102.671875 25.160156 L 102.671875 18.171875 C 102.671875 10.664062 96.5625 4.554688 89.050781 4.554688 C 81.542969 4.554688 75.433594 10.664062 75.433594 18.171875 L 75.433594 25.160156 L 68.253906 25.160156 C 58.851562 25.160156 51.203125 32.808594 51.203125 42.210938 L 51.203125 244.386719 C 51.203125 253.789062 58.851562 261.4375 68.253906 261.4375 L 222.003906 261.4375 C 223.988281 261.4375 225.59375 259.832031 225.59375 257.847656 C 225.59375 255.867188 223.988281 254.257812 222.003906 254.257812 Z M 308.085938 18.171875 C 308.085938 14.621094 310.976562 11.734375 314.527344 11.734375 C 318.078125 11.734375 320.964844 14.621094 320.964844 18.171875 L 320.964844 25.160156 L 308.085938 25.160156 Z M 251.71875 18.171875 C 251.71875 14.621094 254.605469 11.734375 258.15625 11.734375 C 261.707031 11.734375 264.597656 14.621094 264.597656 18.171875 L 264.597656 25.160156 L 251.71875 25.160156 Z M 195.351562 18.171875 C 195.351562 14.621094 198.238281 11.734375 201.789062 11.734375 C 205.339844 11.734375 208.226562 14.621094 208.226562 18.171875 L 208.226562 25.160156 L 195.351562 25.160156 Z M 138.980469 18.171875 C 138.980469 14.621094 141.871094 11.734375 145.421875 11.734375 C 148.972656 11.734375 151.859375 14.621094 151.859375 18.171875 L 151.859375 25.160156 L 138.980469 25.160156 Z M 82.613281 18.171875 C 82.613281 14.621094 85.5 11.734375 89.050781 11.734375 C 92.601562 11.734375 95.492188 14.621094 95.492188 18.171875 L 95.492188 25.160156 L 82.613281 25.160156 Z M 68.253906 32.339844 L 75.433594 32.339844 L 75.433594 39.328125 C 75.433594 46.839844 81.542969 52.945312 89.050781 52.945312 C 91.035156 52.945312 92.640625 51.339844 92.640625 49.355469 C 92.640625 47.375 91.035156 45.769531 89.050781 45.769531 C 85.5 45.769531 82.613281 42.878906 82.613281 39.328125 L 82.613281 32.339844 L 131.800781 32.339844 L 131.800781 39.328125 C 131.800781 46.839844 137.910156 52.945312 145.421875 52.945312 C 147.402344 52.945312 149.011719 51.339844 149.011719 49.355469 C 149.011719 47.375 147.402344 45.769531 145.421875 45.769531 C 141.871094 45.769531 138.980469 42.878906 138.980469 39.328125 L 138.980469 32.339844 L 188.171875 32.339844 L 188.171875 39.328125 C 188.171875 46.839844 194.28125 52.945312 201.789062 52.945312 C 203.773438 52.945312 205.378906 51.339844 205.378906 49.355469 C 205.378906 47.375 203.773438 45.769531 201.789062 45.769531 C 198.238281 45.769531 195.351562 42.878906 195.351562 39.328125 L 195.351562 32.339844 L 244.539062 32.339844 L 244.539062 39.328125 C 244.539062 46.839844 250.648438 52.945312 258.15625 52.945312 C 260.140625 52.945312 261.746094 51.339844 261.746094 49.355469 C 261.746094 47.375 260.140625 45.769531 258.15625 45.769531 C 254.605469 45.769531 251.71875 42.878906 251.71875 39.328125 L 251.71875 32.339844 L 300.90625 32.339844 L 300.90625 39.328125 C 300.90625 46.839844 307.015625 52.945312 314.527344 52.945312 C 316.507812 52.945312 318.117188 51.339844 318.117188 49.355469 C 318.117188 47.375 316.507812 45.769531 314.527344 45.769531 C 310.976562 45.769531 308.085938 42.878906 308.085938 39.328125 L 308.085938 32.339844 L 335.324219 32.339844 C 340.769531 32.339844 345.195312 36.769531 345.195312 42.210938 L 345.195312 66.375 L 58.382812 66.375 L 58.382812 42.210938 C 58.382812 36.769531 62.808594 32.339844 68.253906 32.339844 Z M 85.015625 90.875 C 80.5625 90.875 76.941406 94.5 76.941406 98.953125 L 76.941406 125.898438 C 76.941406 130.351562 80.5625 133.972656 85.015625 133.972656 L 122.011719 133.972656 C 126.464844 133.972656 130.089844 130.351562 130.089844 125.898438 L 130.089844 98.953125 C 130.089844 94.5 126.464844 90.875 122.011719 90.875 Z M 122.910156 98.953125 L 122.910156 125.898438 C 122.910156 126.394531 122.507812 126.796875 122.011719 126.796875 L 85.015625 126.796875 C 84.523438 126.796875 84.117188 126.394531 84.117188 125.898438 L 84.117188 98.953125 C 84.117188 98.457031 84.523438 98.054688 85.015625 98.054688 L 122.011719 98.054688 C 122.507812 98.054688 122.910156 98.457031 122.910156 98.953125 Z M 196.105469 98.953125 C 196.105469 94.5 192.484375 90.875 188.03125 90.875 L 151.035156 90.875 C 146.582031 90.875 142.957031 94.5 142.957031 98.953125 L 142.957031 125.898438 C 142.957031 130.351562 146.582031 133.972656 151.035156 133.972656 L 188.03125 133.972656 C 192.484375 133.972656 196.105469 130.351562 196.105469 125.898438 Z M 188.929688 125.898438 C 188.929688 126.394531 188.527344 126.796875 188.03125 126.796875 L 151.035156 126.796875 C 150.539062 126.796875 150.136719 126.394531 150.136719 125.898438 L 150.136719 98.953125 C 150.136719 98.457031 150.539062 98.054688 151.035156 98.054688 L 188.03125 98.054688 C 188.527344 98.054688 188.929688 98.457031 188.929688 98.953125 Z M 188.03125 193.835938 L 151.035156 193.835938 C 146.582031 193.835938 142.957031 197.460938 142.957031 201.914062 L 142.957031 228.859375 C 142.957031 233.3125 146.582031 236.9375 151.035156 236.9375 L 188.03125 236.9375 C 192.484375 236.9375 196.105469 233.3125 196.105469 228.859375 L 196.105469 201.914062 C 196.105469 197.460938 192.484375 193.835938 188.03125 193.835938 Z M 188.929688 228.859375 C 188.929688 229.355469 188.527344 229.757812 188.03125 229.757812 L 151.035156 229.757812 C 150.539062 229.757812 150.136719 229.355469 150.136719 228.859375 L 150.136719 201.914062 C 150.136719 201.417969 150.539062 201.015625 151.035156 201.015625 L 188.03125 201.015625 C 188.527344 201.015625 188.929688 201.417969 188.929688 201.914062 Z M 368.480469 213.507812 C 368.480469 215.492188 366.871094 217.097656 364.890625 217.097656 L 305.59375 217.097656 C 303.613281 217.097656 302.003906 215.492188 302.003906 213.507812 L 302.003906 154.214844 C 302.003906 152.230469 303.613281 150.625 305.59375 150.625 C 307.578125 150.625 309.183594 152.230469 309.183594 154.214844 L 309.183594 209.917969 L 364.890625 209.917969 C 366.871094 209.917969 368.480469 211.527344 368.480469 213.507812 Z M 368.480469 213.507812 " fill-opacity="1" fill-rule="nonzero"/></g><path fill="#ffffff" d="M 301.660156 214.886719 L 298.675781 214.886719 C 297.820312 214.886719 297.042969 214.535156 296.476562 213.96875 L 296.386719 213.882812 C 295.875 213.328125 295.558594 212.582031 295.558594 211.765625 C 295.558594 210.636719 294.640625 209.71875 293.511719 209.71875 C 292.378906 209.71875 291.464844 210.632812 291.464844 211.765625 C 291.464844 213.675781 292.222656 215.425781 293.457031 216.722656 L 293.585938 216.863281 C 294.765625 218.046875 296.359375 218.816406 298.125 218.953125 L 298.125 221.265625 C 298.125 222.394531 299.039062 223.3125 300.167969 223.3125 C 301.300781 223.3125 302.214844 222.398438 302.214844 221.265625 L 302.214844 218.953125 C 303.980469 218.816406 305.574219 218.046875 306.753906 216.863281 L 306.753906 216.855469 C 308.0625 215.550781 308.871094 213.746094 308.871094 211.765625 C 308.871094 209.785156 308.058594 207.984375 306.753906 206.675781 L 306.746094 206.667969 C 305.441406 205.363281 303.640625 204.550781 301.660156 204.550781 L 298.675781 204.550781 C 297.820312 204.550781 297.042969 204.199219 296.476562 203.632812 L 296.386719 203.546875 C 295.875 202.992188 295.558594 202.25 295.558594 201.433594 C 295.558594 200.570312 295.90625 199.792969 296.46875 199.230469 L 296.476562 199.230469 C 297.042969 198.664062 297.820312 198.3125 298.675781 198.3125 L 301.660156 198.3125 C 302.519531 198.3125 303.296875 198.664062 303.863281 199.226562 C 304.425781 199.792969 304.777344 200.574219 304.777344 201.433594 C 304.777344 202.558594 305.695312 203.480469 306.824219 203.480469 C 307.957031 203.480469 308.871094 202.5625 308.871094 201.433594 C 308.871094 199.453125 308.058594 197.648438 306.753906 196.34375 L 306.746094 196.335938 C 305.566406 195.152344 303.976562 194.386719 302.214844 194.246094 L 302.214844 191.929688 C 302.214844 190.800781 301.300781 189.886719 300.167969 189.886719 C 299.039062 189.886719 298.125 190.800781 298.125 191.929688 L 298.125 194.246094 C 296.359375 194.382812 294.765625 195.152344 293.589844 196.339844 C 292.277344 197.648438 291.464844 199.453125 291.464844 201.429688 C 291.464844 203.339844 292.222656 205.085938 293.457031 206.386719 L 293.585938 206.523438 C 294.890625 207.832031 296.695312 208.640625 298.679688 208.640625 L 301.664062 208.640625 C 302.523438 208.640625 303.300781 208.996094 303.867188 209.554688 C 304.429688 210.121094 304.78125 210.90625 304.78125 211.761719 C 304.78125 212.621094 304.429688 213.402344 303.863281 213.964844 C 303.292969 214.535156 302.515625 214.886719 301.660156 214.886719 Z M 301.660156 214.886719 " fill-opacity="1" fill-rule="nonzero"/><path fill="#ffffff" d="M 300.167969 232.550781 C 307.335938 232.550781 313.824219 229.644531 318.519531 224.949219 C 323.21875 220.253906 326.121094 213.765625 326.121094 206.597656 C 326.121094 199.433594 323.214844 192.941406 318.519531 188.25 C 313.824219 183.550781 307.335938 180.648438 300.167969 180.648438 C 293.003906 180.648438 286.515625 183.554688 281.820312 188.25 C 277.121094 192.945312 274.21875 199.4375 274.21875 206.597656 C 274.21875 213.765625 277.125 220.253906 281.820312 224.949219 C 286.515625 229.648438 293.003906 232.550781 300.167969 232.550781 Z M 285.097656 191.527344 C 288.957031 187.671875 294.285156 185.289062 300.167969 185.289062 C 306.054688 185.289062 311.382812 187.675781 315.242188 191.527344 C 319.097656 195.386719 321.480469 200.714844 321.480469 206.597656 C 321.480469 212.484375 319.09375 217.8125 315.242188 221.667969 C 311.382812 225.527344 306.054688 227.910156 300.167969 227.910156 C 294.285156 227.910156 288.957031 225.523438 285.097656 221.667969 C 281.242188 217.8125 278.859375 212.484375 278.859375 206.597656 C 278.855469 200.714844 281.242188 195.386719 285.097656 191.527344 Z M 285.097656 191.527344 " fill-opacity="1" fill-rule="nonzero"/><g clip-path="url(#02b2039b94)"><path fill="#ffffff" d="M 383.242188 225.761719 L 372.097656 171.804688 L 372.097656 171.792969 C 372.097656 171.464844 372.027344 171.152344 371.902344 170.867188 L 369.15625 157.597656 C 368.902344 156.34375 367.679688 155.539062 366.433594 155.792969 L 300.210938 169.476562 L 230.5625 169.476562 C 229.28125 169.476562 228.242188 170.515625 228.242188 171.792969 L 228.242188 241.402344 C 228.242188 242.683594 229.28125 243.722656 230.5625 243.722656 L 240.078125 243.722656 L 242.378906 254.855469 C 242.636719 256.109375 243.855469 256.914062 245.105469 256.660156 L 307.71875 243.722656 L 369.773438 243.722656 C 371.054688 243.722656 372.09375 242.683594 372.09375 241.402344 L 372.09375 230.421875 L 381.4375 228.492188 C 382.691406 228.234375 383.5 227.015625 383.242188 225.761719 Z M 365.097656 160.789062 L 366.894531 169.476562 L 323.054688 169.476562 Z M 246.441406 251.664062 L 244.804688 243.722656 L 284.882812 243.722656 Z M 367.457031 239.085938 L 232.882812 239.085938 L 232.882812 174.117188 L 367.457031 174.117188 Z M 372.097656 225.699219 L 372.097656 194.648438 L 378.246094 224.429688 Z M 372.097656 225.699219 " fill-opacity="1" fill-rule="nonzero"/></g><path fill="#ffffff" d="M 242.484375 196.414062 C 243.765625 196.414062 244.804688 195.375 244.804688 194.09375 L 244.804688 185.402344 L 253.492188 185.402344 C 254.773438 185.402344 255.8125 184.367188 255.8125 183.085938 C 255.8125 181.808594 254.773438 180.769531 253.492188 180.769531 L 242.484375 180.769531 C 241.207031 180.769531 240.167969 181.808594 240.167969 183.085938 L 240.167969 194.09375 C 240.164062 195.375 241.203125 196.414062 242.484375 196.414062 Z M 242.484375 196.414062 " fill-opacity="1" fill-rule="nonzero"/><path fill="#ffffff" d="M 253.492188 227.792969 L 244.804688 227.792969 L 244.804688 219.101562 C 244.804688 217.824219 243.765625 216.785156 242.484375 216.785156 C 241.207031 216.785156 240.167969 217.824219 240.167969 219.101562 L 240.167969 230.113281 C 240.167969 231.390625 241.207031 232.429688 242.484375 232.429688 L 253.492188 232.429688 C 254.773438 232.429688 255.8125 231.390625 255.8125 230.113281 C 255.8125 228.832031 254.773438 227.792969 253.492188 227.792969 Z M 253.492188 227.792969 " fill-opacity="1" fill-rule="nonzero"/><path fill="#ffffff" d="M 346.84375 185.402344 L 355.53125 185.402344 L 355.53125 194.09375 C 355.53125 195.375 356.570312 196.414062 357.851562 196.414062 C 359.128906 196.414062 360.167969 195.375 360.167969 194.09375 L 360.167969 183.085938 C 360.167969 181.808594 359.128906 180.769531 357.851562 180.769531 L 346.84375 180.769531 C 345.5625 180.769531 344.523438 181.808594 344.523438 183.085938 C 344.523438 184.367188 345.5625 185.402344 346.84375 185.402344 Z M 346.84375 185.402344 " fill-opacity="1" fill-rule="nonzero"/><path fill="#ffffff" d="M 346.84375 232.433594 L 357.851562 232.433594 C 359.128906 232.433594 360.167969 231.394531 360.167969 230.117188 L 360.167969 219.105469 C 360.167969 217.828125 359.128906 216.789062 357.851562 216.789062 C 356.570312 216.789062 355.53125 217.828125 355.53125 219.105469 L 355.53125 227.796875 L 346.84375 227.796875 C 345.5625 227.796875 344.523438 228.835938 344.523438 230.117188 C 344.523438 231.394531 345.5625 232.433594 346.84375 232.433594 Z M 346.84375 232.433594 " fill-opacity="1" fill-rule="nonzero"/></svg>