<svg width="16" height="16" viewBox="0 0 16 16" fill="none" xmlns="http://www.w3.org/2000/svg">
<mask id="mask0_1710_53871" style="mask-type:alpha" maskUnits="userSpaceOnUse" x="0" y="0" width="16" height="16">
<rect width="16" height="16" fill="#D9D9D9"/>
</mask>
<g mask="url(#mask0_1710_53871)">
<path d="M8.00006 11.1537C8.15263 11.1537 8.28052 11.1021 8.38372 10.9989C8.48692 10.8956 8.53852 10.7678 8.53852 10.6152C8.53852 10.4626 8.48692 10.3348 8.38372 10.2316C8.28052 10.1284 8.15263 10.0768 8.00006 10.0768C7.8475 10.0768 7.71961 10.1284 7.61642 10.2316C7.51322 10.3348 7.46162 10.4626 7.46162 10.6152C7.46162 10.7678 7.51322 10.8956 7.61642 10.9989C7.71961 11.1021 7.8475 11.1537 8.00006 11.1537ZM7.50008 8.71777H8.50005V4.71777H7.50008V8.71777ZM8.00118 14.3331C7.12523 14.3331 6.30187 14.1669 5.53112 13.8345C4.76035 13.502 4.08989 13.0509 3.51975 12.481C2.94959 11.9111 2.49822 11.2409 2.16563 10.4705C1.83304 9.70008 1.66675 8.87689 1.66675 8.00094C1.66675 7.12498 1.83297 6.30163 2.16541 5.53087C2.49786 4.7601 2.94903 4.08965 3.51891 3.51951C4.08881 2.94935 4.75898 2.49798 5.5294 2.16539C6.29981 1.8328 7.12299 1.6665 7.99895 1.6665C8.8749 1.6665 9.69826 1.83273 10.469 2.16517C11.2398 2.49762 11.9102 2.94878 12.4804 3.51867C13.0505 4.08857 13.5019 4.75873 13.8345 5.52915C14.1671 6.29957 14.3334 7.12275 14.3334 7.9987C14.3334 8.87466 14.1672 9.69802 13.8347 10.4688C13.5023 11.2395 13.0511 11.91 12.4812 12.4801C11.9113 13.0503 11.2412 13.5017 10.4707 13.8343C9.70032 14.1668 8.87714 14.3331 8.00118 14.3331ZM8.00006 13.3332C9.48895 13.3332 10.7501 12.8165 11.7834 11.7832C12.8167 10.7498 13.3334 9.48871 13.3334 7.99982C13.3334 6.51093 12.8167 5.24982 11.7834 4.21649C10.7501 3.18315 9.48895 2.66649 8.00006 2.66649C6.51118 2.66649 5.25007 3.18315 4.21673 4.21649C3.1834 5.24982 2.66673 6.51093 2.66673 7.99982C2.66673 9.48871 3.1834 10.7498 4.21673 11.7832C5.25007 12.8165 6.51118 13.3332 8.00006 13.3332Z" fill="#F85A5A"/>
</g>
</svg>
