<svg width="20" height="20" viewBox="0 0 20 20" fill="none" xmlns="http://www.w3.org/2000/svg">
<mask id="mask0_7180_111737" style="mask-type:alpha" maskUnits="userSpaceOnUse" x="0" y="0" width="20" height="20">
<rect width="20" height="20" fill="#D9D9D9"/>
</mask>
<g mask="url(#mask0_7180_111737)">
<path d="M9.99988 12.2179C9.89945 12.2179 9.80597 12.2019 9.71944 12.1698C9.6329 12.1378 9.55064 12.0828 9.47265 12.0048L5.72746 8.25959C5.61207 8.14421 5.55305 7.99919 5.55038 7.8245C5.5477 7.64982 5.60673 7.50212 5.72746 7.3814C5.84819 7.26068 5.99455 7.20032 6.16655 7.20032C6.33855 7.20032 6.48491 7.26068 6.60563 7.3814L9.99988 10.7756L13.3941 7.3814C13.5095 7.26602 13.6545 7.207 13.8292 7.20432C14.0039 7.20165 14.1516 7.26068 14.2723 7.3814C14.393 7.50212 14.4534 7.64849 14.4534 7.8205C14.4534 7.9925 14.393 8.13887 14.2723 8.25959L10.5271 12.0048C10.4491 12.0828 10.3669 12.1378 10.2803 12.1698C10.1938 12.2019 10.1003 12.2179 9.99988 12.2179Z" fill="white"/>
</g>
</svg>
