<svg width="20" height="20" viewBox="0 0 20 20" fill="none" xmlns="http://www.w3.org/2000/svg">
<mask id="mask0_7180_111733" style="mask-type:alpha" maskUnits="userSpaceOnUse" x="0" y="0" width="20" height="20">
<rect width="20" height="20" fill="#D9D9D9"/>
</mask>
<g mask="url(#mask0_7180_111733)">
<path d="M9.9999 17.9167C8.91443 17.9167 7.89013 17.7086 6.927 17.2925C5.96386 16.8763 5.12385 16.3098 4.40696 15.593C3.69009 14.8761 3.12359 14.0361 2.70746 13.0729C2.29132 12.1098 2.08325 11.0855 2.08325 10C2.08325 8.90601 2.29132 7.87957 2.70746 6.92071C3.12359 5.96185 3.69009 5.12397 4.40696 4.40708C5.12385 3.69021 5.96386 3.12371 6.927 2.70758C7.89013 2.29144 8.91443 2.08337 9.9999 2.08337C11.0939 2.08337 12.1204 2.29144 13.0792 2.70758C14.0381 3.12371 14.8759 3.69021 15.5928 4.40708C16.3097 5.12397 16.8762 5.96185 17.2923 6.92071C17.7085 7.87957 17.9165 8.90601 17.9165 10C17.9165 11.0855 17.7085 12.1098 17.2923 13.0729C16.8762 14.0361 16.3097 14.8761 15.5928 15.593C14.8759 16.3098 14.0381 16.8763 13.0792 17.2925C12.1204 17.7086 11.0939 17.9167 9.9999 17.9167ZM9.9999 16.6491C10.4251 16.085 10.783 15.516 11.0736 14.9423C11.3642 14.3686 11.6009 13.7415 11.7836 13.0609H8.21623C8.40961 13.7628 8.64893 14.4007 8.93419 14.9744C9.21944 15.5481 9.57468 16.1063 9.9999 16.6491ZM8.38615 16.4199C8.0667 15.9616 7.77984 15.4405 7.52556 14.8566C7.27129 14.2727 7.07363 13.6741 6.93261 13.0609H4.10565C4.54583 13.9263 5.13611 14.6533 5.8765 15.242C6.6169 15.8307 7.45345 16.2233 8.38615 16.4199ZM11.6136 16.4199C12.5463 16.2233 13.3829 15.8307 14.1233 15.242C14.8637 14.6533 15.454 13.9263 15.8942 13.0609H13.0672C12.8995 13.6795 12.6884 14.2807 12.4342 14.8646C12.1799 15.4485 11.9064 15.9669 11.6136 16.4199ZM3.58163 11.8109H6.6794C6.62705 11.5011 6.58913 11.1974 6.56563 10.8999C6.54213 10.6023 6.53038 10.3024 6.53038 10C6.53038 9.69767 6.54213 9.39772 6.56563 9.10017C6.58913 8.80263 6.62705 8.49894 6.6794 8.1891H3.58163C3.5015 8.47223 3.44007 8.76657 3.39734 9.07213C3.3546 9.37768 3.33323 9.68698 3.33323 10C3.33323 10.3131 3.3546 10.6224 3.39734 10.9279C3.44007 11.2335 3.5015 11.5278 3.58163 11.8109ZM7.92938 11.8109H12.0704C12.1228 11.5011 12.1607 11.2001 12.1842 10.9079C12.2077 10.6157 12.2195 10.3131 12.2195 10C12.2195 9.68698 12.2077 9.38436 12.1842 9.09217C12.1607 8.79996 12.1228 8.49894 12.0704 8.1891H7.92938C7.87703 8.49894 7.8391 8.79996 7.81559 9.09217C7.79209 9.38436 7.78034 9.68698 7.78034 10C7.78034 10.3131 7.79209 10.6157 7.81559 10.9079C7.8391 11.2001 7.87703 11.5011 7.92938 11.8109ZM13.3204 11.8109H16.4182C16.4983 11.5278 16.5597 11.2335 16.6025 10.9279C16.6452 10.6224 16.6666 10.3131 16.6666 10C16.6666 9.68698 16.6452 9.37768 16.6025 9.07213C16.5597 8.76657 16.4983 8.47223 16.4182 8.1891H13.3204C13.3727 8.49894 13.4107 8.80263 13.4342 9.10017C13.4577 9.39772 13.4694 9.69767 13.4694 10C13.4694 10.3024 13.4577 10.6023 13.4342 10.8999C13.4107 11.1974 13.3727 11.5011 13.3204 11.8109ZM13.0672 6.93915H15.8942C15.4486 6.06306 14.8623 5.33602 14.1353 4.75802C13.4083 4.18003 12.5677 3.78474 11.6136 3.57212C11.9331 4.05717 12.2173 4.58762 12.4662 5.16348C12.7152 5.73934 12.9155 6.33123 13.0672 6.93915ZM8.21623 6.93915H11.7836C11.5902 6.24256 11.3469 5.60073 11.0536 5.01365C10.7603 4.42658 10.4091 3.87235 9.9999 3.35098C9.5907 3.87235 9.23948 4.42658 8.94621 5.01365C8.65293 5.60073 8.40961 6.24256 8.21623 6.93915ZM4.10565 6.93915H6.93261C7.08431 6.33123 7.28464 5.73934 7.53359 5.16348C7.78252 4.58762 8.0667 4.05717 8.38615 3.57212C7.42675 3.78474 6.58486 4.18138 5.86048 4.76204C5.13612 5.34271 4.55118 6.06841 4.10565 6.93915Z" fill="white"/>
</g>
</svg>
