<svg xmlns="http://www.w3.org/2000/svg" xmlns:xlink="http://www.w3.org/1999/xlink" width="559" zoomAndPan="magnify" viewBox="0 0 419.25 297.75" height="397" preserveAspectRatio="xMidYMid meet" version="1.0"><defs><clipPath id="5a1f541748"><path d="M 0 0.140625 L 418.5 0.140625 L 418.5 297.359375 L 0 297.359375 Z M 0 0.140625 " clip-rule="nonzero"/></clipPath><clipPath id="eb19a391b3"><path d="M 80 11.375 L 339 11.375 L 339 297.359375 L 80 297.359375 Z M 80 11.375 " clip-rule="nonzero"/></clipPath></defs><g clip-path="url(#5a1f541748)"><path fill="#ffffff" d="M 0 0.140625 L 418.5 0.140625 L 418.5 297.359375 L 0 297.359375 Z M 0 0.140625 " fill-opacity="1" fill-rule="nonzero"/><path fill="#ffffff" d="M 0 0.140625 L 418.5 0.140625 L 418.5 297.359375 L 0 297.359375 Z M 0 0.140625 " fill-opacity="1" fill-rule="nonzero"/></g><g clip-path="url(#eb19a391b3)"><path fill="#000000" d="M 335.734375 74.742188 C 333.675781 72.652344 330.933594 71.5 328.011719 71.5 L 291.453125 71.5 C 290.484375 71.5 289.621094 72.113281 289.308594 73.027344 L 274.828125 114.761719 L 267.152344 114.761719 C 268.871094 108.054688 269.789062 101.117188 269.789062 94.0625 C 269.792969 48.46875 232.988281 11.375 187.753906 11.375 C 142.507812 11.375 105.699219 48.46875 105.699219 94.0625 C 105.699219 101.082031 106.625 108.023438 108.355469 114.761719 L 88.03125 114.761719 C 87.726562 114.761719 87.429688 114.820312 87.148438 114.9375 C 82.847656 116.753906 80.0625 120.960938 80.0625 125.65625 C 80.0625 129.953125 82.398438 133.804688 86.078125 135.804688 L 102.859375 203.46875 L 102.859375 260.898438 C 96.789062 264.308594 92.914062 270.785156 92.914062 277.867188 C 92.914062 288.617188 101.59375 297.363281 112.257812 297.363281 C 122.9375 297.363281 131.628906 288.617188 131.628906 277.867188 C 131.628906 270.773438 127.734375 264.289062 121.636719 260.882812 L 121.636719 244.230469 L 253.851562 244.230469 L 253.851562 260.878906 C 247.753906 264.289062 243.859375 270.773438 243.859375 277.867188 C 243.859375 288.617188 252.550781 297.363281 263.230469 297.363281 C 273.90625 297.363281 282.597656 288.617188 282.597656 277.867188 C 282.597656 270.785156 278.714844 264.308594 272.652344 260.90625 L 272.652344 203.46875 L 289.648438 134.933594 L 305.085938 93.449219 L 328.007812 93.449219 C 334.015625 93.449219 338.90625 88.53125 338.90625 82.484375 C 338.90625 79.535156 337.777344 76.777344 335.734375 74.742188 Z M 110.238281 94.0625 C 110.238281 50.96875 145.011719 15.914062 187.753906 15.914062 C 230.484375 15.914062 265.25 50.96875 265.25 94.0625 C 265.25 101.132812 264.289062 108.078125 262.472656 114.761719 L 189.09375 114.761719 L 235.585938 64.230469 C 236.429688 63.3125 236.378906 61.886719 235.464844 61.035156 L 222.929688 49.324219 C 222.488281 48.910156 221.882812 48.671875 221.292969 48.714844 C 220.691406 48.738281 220.117188 49 219.710938 49.445312 L 171.25 102.113281 L 159.359375 82.707031 C 159.042969 82.191406 158.535156 81.824219 157.945312 81.683594 C 157.355469 81.546875 156.738281 81.648438 156.222656 81.96875 L 141.667969 91.023438 C 140.605469 91.683594 140.28125 93.074219 140.933594 94.136719 L 153.589844 114.761719 L 113.042969 114.761719 C 111.207031 108.039062 110.238281 101.09375 110.238281 94.0625 Z M 142.753906 136.527344 L 142.753906 154.980469 L 118.796875 154.980469 L 118.796875 136.527344 Z M 171.226562 136.527344 L 171.226562 154.980469 L 147.292969 154.980469 L 147.292969 136.527344 Z M 187.753906 136.527344 L 199.722656 136.527344 L 199.722656 154.980469 L 175.765625 154.980469 L 175.765625 136.527344 Z M 228.21875 136.527344 L 228.21875 154.980469 L 204.261719 154.980469 L 204.261719 136.527344 Z M 256.710938 136.527344 L 256.710938 154.980469 L 232.757812 154.980469 L 232.757812 136.527344 Z M 274.300781 177.949219 L 261.253906 177.949219 L 261.253906 159.519531 L 278.875 159.519531 Z M 267.792969 277.867188 C 267.792969 280.40625 265.746094 282.472656 263.230469 282.472656 C 260.710938 282.472656 258.664062 280.40625 258.664062 277.867188 C 258.664062 275.3125 260.710938 273.234375 263.230469 273.234375 C 265.746094 273.234375 267.792969 275.3125 267.792969 277.867188 Z M 268.605469 200.921875 L 261.253906 200.921875 L 261.253906 182.492188 L 273.175781 182.492188 Z M 106.90625 200.921875 L 102.335938 182.492188 L 114.257812 182.492188 L 114.257812 200.921875 Z M 116.847656 277.867188 C 116.847656 280.40625 114.789062 282.472656 112.257812 282.472656 C 109.742188 282.472656 107.691406 280.40625 107.691406 277.867188 C 107.691406 275.3125 109.738281 273.234375 112.257812 273.234375 C 114.789062 273.234375 116.847656 275.3125 116.847656 277.867188 Z M 204.261719 200.921875 L 204.261719 182.492188 L 228.21875 182.492188 L 228.21875 200.921875 Z M 187.753906 200.921875 L 175.765625 200.921875 L 175.765625 182.492188 L 199.722656 182.492188 L 199.722656 200.921875 Z M 147.292969 200.921875 L 147.292969 182.492188 L 171.226562 182.492188 L 171.226562 200.921875 Z M 204.261719 177.949219 L 204.261719 159.519531 L 228.21875 159.519531 L 228.21875 177.949219 Z M 199.722656 177.949219 L 175.765625 177.949219 L 175.765625 159.519531 L 199.722656 159.519531 Z M 171.226562 177.949219 L 147.292969 177.949219 L 147.292969 159.519531 L 171.226562 159.519531 Z M 142.753906 177.949219 L 118.796875 177.949219 L 118.796875 159.519531 L 142.753906 159.519531 Z M 114.257812 177.949219 L 101.207031 177.949219 L 96.636719 159.519531 L 114.257812 159.519531 Z M 118.796875 182.492188 L 142.753906 182.492188 L 142.753906 200.921875 L 118.796875 200.921875 Z M 121.636719 205.460938 L 253.851562 205.460938 L 253.851562 225.34375 L 121.636719 225.34375 Z M 256.121094 200.921875 L 232.757812 200.921875 L 232.757812 182.492188 L 256.710938 182.492188 L 256.710938 200.921875 Z M 256.710938 177.949219 L 232.757812 177.949219 L 232.757812 159.519531 L 256.710938 159.519531 Z M 114.257812 154.980469 L 95.511719 154.980469 L 90.933594 136.527344 L 114.257812 136.527344 Z M 119.367188 239.6875 C 118.109375 239.6875 117.09375 240.703125 117.09375 241.957031 L 117.09375 259.019531 C 113.929688 258.199219 110.550781 258.203125 107.398438 259.023438 L 107.398438 205.460938 L 117.09375 205.460938 L 117.09375 227.613281 C 117.09375 228.867188 118.109375 229.882812 119.367188 229.882812 L 256.121094 229.882812 C 257.378906 229.882812 258.394531 228.867188 258.394531 227.613281 L 258.394531 205.460938 L 268.109375 205.460938 L 268.109375 259.03125 C 264.945312 258.203125 261.558594 258.199219 258.394531 259.019531 L 258.394531 241.960938 C 258.394531 240.703125 257.378906 239.691406 256.121094 239.691406 L 119.367188 239.691406 Z M 280 154.980469 L 261.253906 154.980469 L 261.253906 136.527344 L 284.574219 136.527344 Z M 303.507812 88.910156 C 302.558594 88.910156 301.710938 89.5 301.378906 90.386719 L 285.898438 131.988281 L 88.5625 131.988281 C 86.183594 130.839844 84.605469 128.351562 84.605469 125.65625 C 84.605469 122.9375 86.128906 120.488281 88.523438 119.300781 L 276.445312 119.300781 C 277.410156 119.300781 278.273438 118.6875 278.585938 117.773438 L 293.066406 76.039062 L 307.867188 76.039062 L 307.867188 88.910156 Z M 303.507812 88.910156 " fill-opacity="1" fill-rule="nonzero"/></g></svg>